G04 EAGLE Gerber RS-274X export*
G75*
%MOMM*%
%FSLAX34Y34*%
%LPD*%
%INBottom Copper*%
%IPPOS*%
%AMOC8*
5,1,8,0,0,1.08239X$1,22.5*%
G01*
G04 Define Apertures*
%ADD10C,1.170000*%
%ADD11C,0.808000*%
%ADD12R,1.066800X1.066800*%
%ADD13C,0.127000*%
%ADD14C,0.452400*%
%ADD15C,0.352400*%
%ADD16C,0.300000*%
%ADD17C,0.252400*%
%ADD18C,0.150000*%
%ADD19C,0.502400*%
G36*
X-137219Y-172179D02*
X-137512Y-172238D01*
X-160000Y-172238D01*
X-160084Y-172233D01*
X-174879Y-170566D01*
X-175043Y-170529D01*
X-189096Y-165612D01*
X-189247Y-165539D01*
X-201854Y-157617D01*
X-201985Y-157513D01*
X-212513Y-146985D01*
X-212617Y-146854D01*
X-220539Y-134247D01*
X-220612Y-134096D01*
X-225529Y-120043D01*
X-225566Y-119879D01*
X-227233Y-105084D01*
X-227238Y-105000D01*
X-227238Y-72512D01*
X-227188Y-72242D01*
X-227027Y-71990D01*
X-226781Y-71821D01*
X-226488Y-71762D01*
X-161992Y-71762D01*
X-161733Y-71808D01*
X-161479Y-71965D01*
X-161306Y-72209D01*
X-161242Y-72500D01*
X-161297Y-72793D01*
X-161461Y-73042D01*
X-186267Y-97848D01*
X-186505Y-98009D01*
X-186798Y-98068D01*
X-188788Y-98068D01*
X-190857Y-100137D01*
X-190857Y-103063D01*
X-188788Y-105132D01*
X-185862Y-105132D01*
X-183793Y-103063D01*
X-183793Y-101073D01*
X-183738Y-100791D01*
X-183573Y-100542D01*
X-159752Y-76721D01*
X-159536Y-76571D01*
X-159246Y-76502D01*
X-158952Y-76552D01*
X-158700Y-76713D01*
X-158531Y-76959D01*
X-158472Y-77252D01*
X-158472Y-78298D01*
X-156403Y-80367D01*
X-153477Y-80367D01*
X-152070Y-78960D01*
X-151832Y-78799D01*
X-151539Y-78740D01*
X-149706Y-78740D01*
X-118985Y-48019D01*
X-118769Y-47869D01*
X-118479Y-47800D01*
X-118185Y-47850D01*
X-117933Y-48011D01*
X-117764Y-48257D01*
X-117705Y-48550D01*
X-117705Y-108589D01*
X-117760Y-108871D01*
X-117925Y-109120D01*
X-118467Y-109662D01*
X-118467Y-112588D01*
X-116398Y-114657D01*
X-113472Y-114657D01*
X-111403Y-112588D01*
X-111403Y-109662D01*
X-111945Y-109120D01*
X-112106Y-108882D01*
X-112165Y-108589D01*
X-112165Y92587D01*
X-129598Y110021D01*
X-129759Y110259D01*
X-129818Y110551D01*
X-129818Y111318D01*
X-131887Y113387D01*
X-134813Y113387D01*
X-136882Y111318D01*
X-136882Y108392D01*
X-134813Y106323D01*
X-134046Y106323D01*
X-133765Y106268D01*
X-133516Y106103D01*
X-130015Y102602D01*
X-129864Y102386D01*
X-129795Y102096D01*
X-129845Y101802D01*
X-130006Y101550D01*
X-130253Y101381D01*
X-130323Y101367D01*
X-132437Y99253D01*
X-132437Y96327D01*
X-130368Y94258D01*
X-128378Y94258D01*
X-128096Y94203D01*
X-127847Y94038D01*
X-123767Y89958D01*
X-123606Y89720D01*
X-123547Y89427D01*
X-123547Y87437D01*
X-122775Y86665D01*
X-122614Y86427D01*
X-122555Y86134D01*
X-122555Y-45890D01*
X-122610Y-46172D01*
X-122775Y-46421D01*
X-125998Y-49644D01*
X-126214Y-49794D01*
X-126504Y-49863D01*
X-126798Y-49813D01*
X-127050Y-49652D01*
X-127219Y-49406D01*
X-127221Y-49394D01*
X-128685Y-47930D01*
X-128846Y-47692D01*
X-128905Y-47399D01*
X-128905Y52859D01*
X-161983Y85937D01*
X-162144Y86175D01*
X-162203Y86468D01*
X-162203Y88458D01*
X-164272Y90527D01*
X-167198Y90527D01*
X-169267Y88458D01*
X-169267Y85532D01*
X-167198Y83463D01*
X-165208Y83463D01*
X-164926Y83408D01*
X-164677Y83243D01*
X-132935Y51501D01*
X-132774Y51263D01*
X-132715Y50970D01*
X-132715Y33476D01*
X-132761Y33216D01*
X-132918Y32963D01*
X-133162Y32790D01*
X-133453Y32726D01*
X-133540Y32742D01*
X-136718Y32742D01*
X-138787Y30673D01*
X-138787Y27747D01*
X-137380Y26340D01*
X-137219Y26102D01*
X-137160Y25809D01*
X-137160Y-409D01*
X-137215Y-691D01*
X-137380Y-940D01*
X-138787Y-2347D01*
X-138787Y-5273D01*
X-137380Y-6680D01*
X-137219Y-6918D01*
X-137160Y-7211D01*
X-137160Y-48430D01*
X-137215Y-48712D01*
X-137380Y-48961D01*
X-155958Y-67539D01*
X-156174Y-67689D01*
X-156464Y-67758D01*
X-156758Y-67708D01*
X-157010Y-67547D01*
X-157179Y-67301D01*
X-157238Y-67008D01*
X-157238Y70144D01*
X-158856Y71762D01*
X-226488Y71762D01*
X-226758Y71812D01*
X-227010Y71973D01*
X-227179Y72219D01*
X-227238Y72512D01*
X-227238Y105000D01*
X-227233Y105084D01*
X-225566Y119879D01*
X-225529Y120043D01*
X-220612Y134096D01*
X-220539Y134247D01*
X-212617Y146854D01*
X-212513Y146985D01*
X-201985Y157513D01*
X-201854Y157617D01*
X-189247Y165539D01*
X-189096Y165612D01*
X-175043Y170529D01*
X-174879Y170566D01*
X-160084Y172233D01*
X-160000Y172238D01*
X-43404Y172238D01*
X-43003Y172122D01*
X-42788Y171916D01*
X-42670Y171641D01*
X-42668Y171343D01*
X-42783Y171067D01*
X-42805Y171035D01*
X-43422Y170054D01*
X-43528Y169869D01*
X-43613Y169689D01*
X-43681Y169515D01*
X-44064Y168421D01*
X-44126Y168218D01*
X-44170Y168023D01*
X-44197Y167839D01*
X-44325Y166696D01*
X-44344Y166370D01*
X-44344Y165525D01*
X-44401Y165238D01*
X-44890Y164057D01*
X-44890Y163150D01*
X-28110Y163150D01*
X-28110Y164057D01*
X-28599Y165238D01*
X-28656Y165525D01*
X-28656Y166370D01*
X-28675Y166696D01*
X-28803Y167837D01*
X-28835Y168048D01*
X-28881Y168243D01*
X-28936Y168419D01*
X-29319Y169514D01*
X-29397Y169712D01*
X-29484Y169892D01*
X-29578Y170052D01*
X-30194Y171034D01*
X-30216Y171065D01*
X-30346Y171464D01*
X-30296Y171758D01*
X-30135Y172010D01*
X-29889Y172179D01*
X-29596Y172238D01*
X42996Y172238D01*
X43397Y172122D01*
X43612Y171916D01*
X43730Y171641D01*
X43732Y171343D01*
X43617Y171067D01*
X43595Y171035D01*
X42979Y170054D01*
X42872Y169869D01*
X42787Y169689D01*
X42719Y169515D01*
X42336Y168421D01*
X42274Y168218D01*
X42230Y168023D01*
X42203Y167839D01*
X42075Y166696D01*
X42056Y166370D01*
X42056Y165525D01*
X41999Y165238D01*
X41510Y164057D01*
X41510Y163150D01*
X58290Y163150D01*
X58290Y164057D01*
X57801Y165238D01*
X57744Y165525D01*
X57744Y166370D01*
X57725Y166696D01*
X57597Y167837D01*
X57565Y168048D01*
X57519Y168243D01*
X57464Y168419D01*
X57081Y169514D01*
X57003Y169712D01*
X56916Y169892D01*
X56822Y170052D01*
X56206Y171034D01*
X56184Y171065D01*
X56054Y171464D01*
X56104Y171758D01*
X56265Y172010D01*
X56511Y172179D01*
X56804Y172238D01*
X129250Y172238D01*
X129520Y172188D01*
X129772Y172027D01*
X129941Y171781D01*
X130000Y171488D01*
X130000Y133086D01*
X130024Y132984D01*
X130043Y132957D01*
X136939Y126061D01*
X137028Y126005D01*
X137061Y126000D01*
X169800Y126000D01*
X170082Y125945D01*
X170331Y125780D01*
X177861Y118250D01*
X225040Y118250D01*
X225228Y118226D01*
X225497Y118095D01*
X225693Y117870D01*
X225785Y117586D01*
X227233Y105086D01*
X227238Y105000D01*
X227238Y91444D01*
X227231Y91406D01*
X227238Y89993D01*
X227238Y88578D01*
X227246Y88542D01*
X227936Y-44651D01*
X227885Y-44925D01*
X227724Y-45177D01*
X227478Y-45346D01*
X227186Y-45405D01*
X226111Y-45405D01*
X223415Y-46522D01*
X221352Y-48585D01*
X220235Y-51281D01*
X220235Y-54199D01*
X221352Y-56895D01*
X223415Y-58958D01*
X226111Y-60075D01*
X227269Y-60075D01*
X227536Y-60124D01*
X227788Y-60284D01*
X227959Y-60529D01*
X228019Y-60821D01*
X228041Y-64971D01*
X227991Y-65245D01*
X227830Y-65497D01*
X227583Y-65666D01*
X227291Y-65725D01*
X226111Y-65725D01*
X223415Y-66842D01*
X221352Y-68905D01*
X220235Y-71601D01*
X220235Y-74519D01*
X221352Y-77215D01*
X223415Y-79278D01*
X226111Y-80395D01*
X227375Y-80395D01*
X227641Y-80444D01*
X227894Y-80604D01*
X228064Y-80849D01*
X228125Y-81141D01*
X228231Y-101563D01*
X228228Y-101577D01*
X228238Y-103019D01*
X228234Y-103103D01*
X226635Y-118244D01*
X226599Y-118408D01*
X221671Y-132813D01*
X221599Y-132965D01*
X213589Y-145913D01*
X213486Y-146045D01*
X202796Y-156885D01*
X202665Y-156991D01*
X189831Y-165181D01*
X189680Y-165255D01*
X175345Y-170384D01*
X175181Y-170422D01*
X160065Y-172233D01*
X159976Y-172238D01*
X137512Y-172238D01*
X137242Y-172188D01*
X136990Y-172027D01*
X136821Y-171781D01*
X136762Y-171488D01*
X136762Y-155856D01*
X135144Y-154238D01*
X84856Y-154238D01*
X83238Y-155856D01*
X83238Y-171488D01*
X83188Y-171758D01*
X83027Y-172010D01*
X82781Y-172179D01*
X82488Y-172238D01*
X27512Y-172238D01*
X27242Y-172188D01*
X26990Y-172027D01*
X26821Y-171781D01*
X26762Y-171488D01*
X26762Y-155856D01*
X25144Y-154238D01*
X-25144Y-154238D01*
X-26762Y-155856D01*
X-26762Y-171488D01*
X-26812Y-171758D01*
X-26973Y-172010D01*
X-27219Y-172179D01*
X-27512Y-172238D01*
X-82488Y-172238D01*
X-82758Y-172188D01*
X-83010Y-172027D01*
X-83179Y-171781D01*
X-83238Y-171488D01*
X-83238Y-155856D01*
X-84856Y-154238D01*
X-135144Y-154238D01*
X-136762Y-155856D01*
X-136762Y-171488D01*
X-136812Y-171758D01*
X-136973Y-172010D01*
X-137219Y-172179D01*
G37*
%LPC*%
G36*
X50662Y161626D02*
X50662Y150614D01*
X51349Y150691D01*
X51560Y150723D01*
X51755Y150769D01*
X51931Y150824D01*
X53026Y151207D01*
X53224Y151285D01*
X53404Y151372D01*
X53564Y151466D01*
X54546Y152082D01*
X54721Y152203D01*
X54877Y152328D01*
X55012Y152454D01*
X55833Y153275D01*
X55977Y153431D01*
X56101Y153587D01*
X56205Y153741D01*
X56822Y154722D01*
X56928Y154907D01*
X57013Y155087D01*
X57081Y155261D01*
X57464Y156355D01*
X57526Y156558D01*
X57570Y156753D01*
X57597Y156937D01*
X57725Y158080D01*
X57744Y158406D01*
X57744Y159251D01*
X57801Y159538D01*
X58290Y160719D01*
X58290Y161626D01*
X50662Y161626D01*
G37*
G36*
X48449Y150691D02*
X49138Y150614D01*
X49138Y161626D01*
X41510Y161626D01*
X41510Y160719D01*
X41999Y159538D01*
X42056Y159251D01*
X42056Y158406D01*
X42075Y158080D01*
X42203Y156939D01*
X42235Y156728D01*
X42281Y156533D01*
X42336Y156357D01*
X42719Y155262D01*
X42797Y155064D01*
X42884Y154884D01*
X42978Y154724D01*
X43594Y153742D01*
X43715Y153567D01*
X43840Y153411D01*
X43966Y153276D01*
X44787Y152455D01*
X44943Y152311D01*
X45099Y152187D01*
X45253Y152083D01*
X46234Y151467D01*
X46419Y151360D01*
X46599Y151275D01*
X46773Y151207D01*
X47867Y150824D01*
X48070Y150762D01*
X48265Y150718D01*
X48449Y150691D01*
G37*
G36*
X-35738Y161626D02*
X-35738Y150614D01*
X-35051Y150691D01*
X-34840Y150723D01*
X-34645Y150769D01*
X-34469Y150824D01*
X-33374Y151207D01*
X-33176Y151285D01*
X-32996Y151372D01*
X-32836Y151466D01*
X-31854Y152082D01*
X-31679Y152203D01*
X-31523Y152328D01*
X-31388Y152454D01*
X-30567Y153275D01*
X-30423Y153431D01*
X-30299Y153587D01*
X-30195Y153741D01*
X-29579Y154722D01*
X-29472Y154907D01*
X-29387Y155087D01*
X-29319Y155261D01*
X-28936Y156355D01*
X-28874Y156558D01*
X-28830Y156753D01*
X-28803Y156937D01*
X-28675Y158080D01*
X-28656Y158406D01*
X-28656Y159251D01*
X-28599Y159538D01*
X-28110Y160719D01*
X-28110Y161626D01*
X-35738Y161626D01*
G37*
G36*
X-37951Y150691D02*
X-37262Y150614D01*
X-37262Y161626D01*
X-44890Y161626D01*
X-44890Y160719D01*
X-44401Y159538D01*
X-44344Y159251D01*
X-44344Y158406D01*
X-44325Y158080D01*
X-44197Y156939D01*
X-44165Y156728D01*
X-44119Y156533D01*
X-44064Y156357D01*
X-43681Y155262D01*
X-43603Y155064D01*
X-43516Y154884D01*
X-43422Y154724D01*
X-42806Y153742D01*
X-42685Y153567D01*
X-42560Y153411D01*
X-42434Y153276D01*
X-41613Y152455D01*
X-41457Y152311D01*
X-41301Y152187D01*
X-41147Y152083D01*
X-40166Y151467D01*
X-39981Y151360D01*
X-39801Y151275D01*
X-39627Y151207D01*
X-38533Y150824D01*
X-38330Y150762D01*
X-38135Y150718D01*
X-37951Y150691D01*
G37*
G36*
X116012Y-3532D02*
X118938Y-3532D01*
X121007Y-1463D01*
X121007Y1463D01*
X120465Y2005D01*
X120304Y2243D01*
X120245Y2536D01*
X120245Y35088D01*
X120295Y35358D01*
X120456Y35610D01*
X120702Y35779D01*
X120995Y35838D01*
X124018Y35838D01*
X125720Y37540D01*
X125936Y37690D01*
X126226Y37759D01*
X126520Y37709D01*
X126772Y37548D01*
X126941Y37302D01*
X127000Y37009D01*
X127000Y35151D01*
X126945Y34869D01*
X126780Y34620D01*
X125373Y33213D01*
X125373Y30287D01*
X127442Y28218D01*
X130368Y28218D01*
X132437Y30287D01*
X132437Y33213D01*
X131030Y34620D01*
X130869Y34858D01*
X130810Y35151D01*
X130810Y75339D01*
X130865Y75621D01*
X131030Y75870D01*
X132437Y77277D01*
X132437Y80203D01*
X130304Y82336D01*
X130079Y82475D01*
X129906Y82719D01*
X129842Y83010D01*
X129897Y83303D01*
X130061Y83552D01*
X133562Y87053D01*
X133800Y87214D01*
X134093Y87273D01*
X136083Y87273D01*
X138152Y89342D01*
X138152Y92268D01*
X136083Y94337D01*
X133157Y94337D01*
X131088Y92268D01*
X131088Y90278D01*
X131033Y89996D01*
X130868Y89747D01*
X120650Y79529D01*
X120650Y54623D01*
X120604Y54364D01*
X120447Y54110D01*
X120204Y53937D01*
X119912Y53873D01*
X119619Y53928D01*
X119370Y54093D01*
X106622Y66841D01*
X106461Y67079D01*
X106402Y67371D01*
X106402Y68773D01*
X104333Y70842D01*
X101407Y70842D01*
X100865Y70300D01*
X100627Y70139D01*
X100334Y70080D01*
X61083Y70080D01*
X60159Y69157D01*
X59922Y68996D01*
X59629Y68937D01*
X58227Y68937D01*
X56158Y66868D01*
X56158Y66101D01*
X56103Y65820D01*
X55938Y65571D01*
X54445Y64078D01*
X54163Y63900D01*
X53868Y63860D01*
X53580Y63937D01*
X53553Y63951D01*
X53006Y63769D01*
X52769Y63730D01*
X-23307Y63730D01*
X-23588Y63785D01*
X-23837Y63950D01*
X-27465Y67578D01*
X-27616Y67794D01*
X-27685Y68084D01*
X-27635Y68378D01*
X-27474Y68630D01*
X-27228Y68799D01*
X-27157Y68813D01*
X-25043Y70927D01*
X-25043Y73853D01*
X-26450Y75260D01*
X-26611Y75498D01*
X-26670Y75791D01*
X-26670Y89705D01*
X-26615Y89987D01*
X-26450Y90236D01*
X4022Y120708D01*
X4260Y120869D01*
X4553Y120928D01*
X6543Y120928D01*
X8612Y122997D01*
X8612Y125923D01*
X6543Y127992D01*
X3617Y127992D01*
X1548Y125923D01*
X1548Y123933D01*
X1493Y123651D01*
X1328Y123402D01*
X-30480Y91594D01*
X-30480Y75791D01*
X-30535Y75509D01*
X-30700Y75260D01*
X-32145Y73815D01*
X-32153Y73771D01*
X-32310Y73517D01*
X-32554Y73344D01*
X-32845Y73280D01*
X-33138Y73335D01*
X-33387Y73500D01*
X-49715Y89828D01*
X-49876Y90066D01*
X-49935Y90358D01*
X-49935Y111764D01*
X-49880Y112046D01*
X-49715Y112295D01*
X-49109Y112901D01*
X-48970Y113126D01*
X-48727Y113299D01*
X-48435Y113363D01*
X-48142Y113308D01*
X-47893Y113144D01*
X-42765Y108016D01*
X-42604Y107778D01*
X-42545Y107485D01*
X-42545Y94206D01*
X-42600Y93924D01*
X-42765Y93675D01*
X-44172Y92268D01*
X-44172Y89342D01*
X-42103Y87273D01*
X-39177Y87273D01*
X-37108Y89342D01*
X-37108Y92268D01*
X-38515Y93675D01*
X-38676Y93913D01*
X-38735Y94206D01*
X-38735Y106940D01*
X-38650Y107287D01*
X-38462Y107519D01*
X-38198Y107659D01*
X-37901Y107686D01*
X-37262Y107614D01*
X-37262Y120126D01*
X-44890Y120126D01*
X-44890Y119219D01*
X-44401Y118038D01*
X-44344Y117751D01*
X-44344Y116794D01*
X-44390Y116534D01*
X-44547Y116280D01*
X-44790Y116108D01*
X-45082Y116044D01*
X-45375Y116098D01*
X-45624Y116263D01*
X-48953Y119592D01*
X-49114Y119830D01*
X-49173Y120123D01*
X-49173Y122113D01*
X-51242Y124182D01*
X-53797Y124182D01*
X-54057Y124228D01*
X-54311Y124385D01*
X-54483Y124629D01*
X-54547Y124920D01*
X-54493Y125213D01*
X-54328Y125462D01*
X-53618Y126172D01*
X-53618Y129098D01*
X-54069Y129548D01*
X-54224Y129775D01*
X-54288Y130067D01*
X-54233Y130360D01*
X-54069Y130609D01*
X-51904Y132773D01*
X-51667Y132934D01*
X-51374Y132993D01*
X-50607Y132993D01*
X-48538Y135062D01*
X-48538Y137988D01*
X-50607Y140057D01*
X-53533Y140057D01*
X-55602Y137988D01*
X-55602Y137221D01*
X-55657Y136940D01*
X-55822Y136691D01*
X-59920Y132592D01*
X-59920Y130171D01*
X-59975Y129889D01*
X-60140Y129640D01*
X-60682Y129098D01*
X-60682Y127696D01*
X-60737Y127415D01*
X-60902Y127166D01*
X-67540Y120527D01*
X-67540Y93468D01*
X-53790Y79717D01*
X-53629Y79480D01*
X-53570Y79187D01*
X-53570Y38731D01*
X-53625Y38449D01*
X-53790Y38200D01*
X-54332Y37658D01*
X-54332Y34732D01*
X-52263Y32663D01*
X-49337Y32663D01*
X-47268Y34732D01*
X-47268Y37658D01*
X-47810Y38200D01*
X-47971Y38438D01*
X-48030Y38731D01*
X-48030Y78497D01*
X-47984Y78756D01*
X-47827Y79010D01*
X-47584Y79183D01*
X-47292Y79247D01*
X-46999Y79192D01*
X-46750Y79027D01*
X-25912Y58190D01*
X18419Y58190D01*
X18701Y58135D01*
X18950Y57970D01*
X20762Y56158D01*
X23688Y56158D01*
X25500Y57970D01*
X25738Y58131D01*
X26031Y58190D01*
X50328Y58190D01*
X50598Y58140D01*
X50850Y57979D01*
X51019Y57733D01*
X51078Y57440D01*
X51078Y56322D01*
X53147Y54253D01*
X56073Y54253D01*
X58142Y56322D01*
X58142Y59422D01*
X58107Y59582D01*
X58162Y59875D01*
X58327Y60124D01*
X59856Y61653D01*
X60094Y61814D01*
X60386Y61873D01*
X61153Y61873D01*
X63257Y63977D01*
X63272Y64060D01*
X63433Y64312D01*
X63679Y64481D01*
X63972Y64540D01*
X100334Y64540D01*
X100616Y64485D01*
X100865Y64320D01*
X101407Y63778D01*
X101410Y63778D01*
X101647Y63740D01*
X101841Y63675D01*
X102134Y63494D01*
X114485Y51142D01*
X114646Y50905D01*
X114705Y50612D01*
X114705Y2536D01*
X114650Y2254D01*
X114485Y2005D01*
X113943Y1463D01*
X113943Y-1463D01*
X116012Y-3532D01*
G37*
G36*
X34506Y120388D02*
X36694Y120388D01*
X38715Y121225D01*
X40230Y122740D01*
X40446Y122890D01*
X40736Y122959D01*
X41030Y122909D01*
X41282Y122748D01*
X41451Y122502D01*
X41510Y122209D01*
X41510Y121650D01*
X49138Y121650D01*
X49138Y134162D01*
X48451Y134085D01*
X48240Y134053D01*
X48045Y134007D01*
X47869Y133952D01*
X46774Y133569D01*
X46576Y133491D01*
X46396Y133404D01*
X46236Y133310D01*
X45254Y132694D01*
X45079Y132573D01*
X44923Y132448D01*
X44788Y132322D01*
X43967Y131501D01*
X43823Y131345D01*
X43699Y131189D01*
X43595Y131035D01*
X42979Y130054D01*
X42872Y129869D01*
X42787Y129689D01*
X42719Y129515D01*
X42336Y128421D01*
X42274Y128218D01*
X42230Y128023D01*
X42216Y127928D01*
X42026Y127529D01*
X41783Y127354D01*
X41492Y127288D01*
X41199Y127340D01*
X40948Y127503D01*
X40782Y127751D01*
X40263Y129003D01*
X38715Y130551D01*
X36694Y131388D01*
X34506Y131388D01*
X32485Y130551D01*
X30937Y129003D01*
X30100Y126982D01*
X30100Y124794D01*
X30937Y122773D01*
X32485Y121225D01*
X34506Y120388D01*
G37*
G36*
X-44890Y121650D02*
X-37262Y121650D01*
X-37262Y134162D01*
X-37949Y134085D01*
X-38160Y134053D01*
X-38355Y134007D01*
X-38531Y133952D01*
X-39626Y133569D01*
X-39824Y133491D01*
X-40004Y133404D01*
X-40164Y133310D01*
X-41146Y132694D01*
X-41321Y132573D01*
X-41477Y132448D01*
X-41612Y132322D01*
X-42433Y131501D01*
X-42577Y131345D01*
X-42701Y131189D01*
X-42805Y131035D01*
X-43422Y130054D01*
X-43528Y129869D01*
X-43613Y129689D01*
X-43681Y129515D01*
X-44064Y128421D01*
X-44126Y128218D01*
X-44170Y128023D01*
X-44197Y127839D01*
X-44325Y126696D01*
X-44344Y126370D01*
X-44344Y124025D01*
X-44401Y123738D01*
X-44890Y122557D01*
X-44890Y121650D01*
G37*
G36*
X50662Y121650D02*
X58290Y121650D01*
X58290Y122557D01*
X57801Y123738D01*
X57744Y124025D01*
X57744Y126370D01*
X57725Y126696D01*
X57597Y127837D01*
X57565Y128048D01*
X57519Y128243D01*
X57464Y128419D01*
X57081Y129514D01*
X57003Y129712D01*
X56916Y129892D01*
X56822Y130052D01*
X56206Y131034D01*
X56085Y131209D01*
X55960Y131365D01*
X55834Y131500D01*
X55013Y132321D01*
X54857Y132465D01*
X54701Y132589D01*
X54547Y132693D01*
X53566Y133310D01*
X53381Y133416D01*
X53201Y133501D01*
X53027Y133569D01*
X51933Y133952D01*
X51730Y134014D01*
X51535Y134058D01*
X51351Y134085D01*
X50662Y134162D01*
X50662Y121650D01*
G37*
G36*
X-23294Y120388D02*
X-21106Y120388D01*
X-19085Y121225D01*
X-17537Y122773D01*
X-16700Y124794D01*
X-16700Y126982D01*
X-17537Y129003D01*
X-19085Y130551D01*
X-21106Y131388D01*
X-23294Y131388D01*
X-25315Y130551D01*
X-26863Y129003D01*
X-27382Y127750D01*
X-27662Y127411D01*
X-27938Y127299D01*
X-28237Y127305D01*
X-28510Y127426D01*
X-28714Y127644D01*
X-28816Y127924D01*
X-28835Y128048D01*
X-28881Y128243D01*
X-28936Y128419D01*
X-29319Y129514D01*
X-29397Y129712D01*
X-29484Y129892D01*
X-29578Y130052D01*
X-30194Y131034D01*
X-30315Y131209D01*
X-30440Y131365D01*
X-30566Y131500D01*
X-31387Y132321D01*
X-31543Y132465D01*
X-31699Y132589D01*
X-31853Y132693D01*
X-32834Y133310D01*
X-33019Y133416D01*
X-33199Y133501D01*
X-33373Y133569D01*
X-34467Y133952D01*
X-34670Y134014D01*
X-34865Y134058D01*
X-35049Y134085D01*
X-35738Y134162D01*
X-35738Y121650D01*
X-28110Y121650D01*
X-28110Y122209D01*
X-28064Y122468D01*
X-27907Y122722D01*
X-27664Y122895D01*
X-27372Y122959D01*
X-27079Y122904D01*
X-26830Y122740D01*
X-25315Y121225D01*
X-23294Y120388D01*
G37*
G36*
X-35738Y120126D02*
X-35738Y107614D01*
X-35051Y107691D01*
X-34840Y107723D01*
X-34645Y107769D01*
X-34469Y107824D01*
X-33374Y108207D01*
X-33176Y108285D01*
X-32996Y108372D01*
X-32836Y108466D01*
X-31854Y109082D01*
X-31679Y109203D01*
X-31523Y109328D01*
X-31388Y109454D01*
X-30567Y110275D01*
X-30423Y110431D01*
X-30299Y110587D01*
X-30195Y110741D01*
X-29579Y111722D01*
X-29472Y111907D01*
X-29387Y112087D01*
X-29319Y112261D01*
X-28936Y113355D01*
X-28874Y113558D01*
X-28830Y113753D01*
X-28803Y113937D01*
X-28675Y115080D01*
X-28656Y115406D01*
X-28656Y117751D01*
X-28599Y118038D01*
X-28110Y119219D01*
X-28110Y120126D01*
X-35738Y120126D01*
G37*
G36*
X48449Y107691D02*
X49138Y107614D01*
X49138Y120126D01*
X41510Y120126D01*
X41510Y119219D01*
X41999Y118038D01*
X42056Y117751D01*
X42056Y115406D01*
X42075Y115080D01*
X42203Y113939D01*
X42235Y113728D01*
X42281Y113533D01*
X42336Y113357D01*
X42719Y112262D01*
X42797Y112064D01*
X42884Y111884D01*
X42978Y111724D01*
X43594Y110742D01*
X43715Y110567D01*
X43840Y110411D01*
X43966Y110276D01*
X44787Y109455D01*
X44943Y109311D01*
X45099Y109187D01*
X45253Y109083D01*
X46234Y108467D01*
X46419Y108360D01*
X46599Y108275D01*
X46773Y108207D01*
X47867Y107824D01*
X48070Y107762D01*
X48265Y107718D01*
X48449Y107691D01*
G37*
G36*
X50662Y120126D02*
X50662Y107614D01*
X51349Y107691D01*
X51560Y107723D01*
X51755Y107769D01*
X51931Y107824D01*
X53026Y108207D01*
X53224Y108285D01*
X53404Y108372D01*
X53564Y108466D01*
X54546Y109082D01*
X54721Y109203D01*
X54877Y109328D01*
X55012Y109454D01*
X55833Y110275D01*
X55977Y110431D01*
X56101Y110587D01*
X56205Y110741D01*
X56822Y111722D01*
X56928Y111907D01*
X57013Y112087D01*
X57081Y112261D01*
X57464Y113355D01*
X57526Y113558D01*
X57570Y113753D01*
X57597Y113937D01*
X57725Y115080D01*
X57744Y115406D01*
X57744Y117751D01*
X57801Y118038D01*
X58290Y119219D01*
X58290Y120126D01*
X50662Y120126D01*
G37*
G36*
X15682Y68223D02*
X18608Y68223D01*
X20015Y69630D01*
X20253Y69791D01*
X20546Y69850D01*
X42319Y69850D01*
X42601Y69795D01*
X42850Y69630D01*
X44257Y68223D01*
X47183Y68223D01*
X49252Y70292D01*
X49252Y73218D01*
X47183Y75287D01*
X44257Y75287D01*
X42850Y73880D01*
X42612Y73719D01*
X42319Y73660D01*
X20546Y73660D01*
X20264Y73715D01*
X20015Y73880D01*
X18608Y75287D01*
X15682Y75287D01*
X13613Y73218D01*
X13613Y70292D01*
X15682Y68223D01*
G37*
G36*
X-21148Y-18772D02*
X-18222Y-18772D01*
X-16815Y-17365D01*
X-16577Y-17204D01*
X-16284Y-17145D01*
X-3401Y-17145D01*
X-3119Y-17200D01*
X-2870Y-17365D01*
X-1463Y-18772D01*
X1463Y-18772D01*
X3532Y-16703D01*
X3532Y-13777D01*
X2125Y-12370D01*
X1964Y-12132D01*
X1905Y-11839D01*
X1905Y2075D01*
X1960Y2357D01*
X2125Y2606D01*
X13547Y14028D01*
X13785Y14189D01*
X14078Y14248D01*
X16703Y14248D01*
X18772Y16317D01*
X18772Y16775D01*
X18818Y17034D01*
X18975Y17288D01*
X19219Y17461D01*
X19510Y17525D01*
X19803Y17470D01*
X20052Y17305D01*
X47048Y-9691D01*
X47209Y-9929D01*
X47268Y-10221D01*
X47268Y-10988D01*
X49337Y-13057D01*
X52263Y-13057D01*
X54332Y-10988D01*
X54332Y-8062D01*
X52263Y-5993D01*
X51496Y-5993D01*
X51215Y-5938D01*
X50966Y-5773D01*
X46255Y-1062D01*
X46104Y-846D01*
X46035Y-556D01*
X46085Y-262D01*
X46246Y-10D01*
X46493Y159D01*
X46785Y218D01*
X47567Y218D01*
X49782Y2433D01*
X49782Y4377D01*
X49837Y4659D01*
X50002Y4908D01*
X63642Y18548D01*
X63880Y18709D01*
X64173Y18768D01*
X64456Y18768D01*
X66232Y20544D01*
X66232Y23056D01*
X65165Y24123D01*
X65009Y24350D01*
X64945Y24642D01*
X65000Y24935D01*
X65165Y25184D01*
X65732Y25751D01*
X65732Y27849D01*
X64249Y29332D01*
X62151Y29332D01*
X61744Y28925D01*
X61506Y28764D01*
X61214Y28705D01*
X37011Y28705D01*
X35530Y27224D01*
X35304Y27069D01*
X35012Y27005D01*
X34719Y27060D01*
X34470Y27224D01*
X30105Y31589D01*
X29949Y31816D01*
X29885Y32108D01*
X29940Y32401D01*
X30105Y32650D01*
X30837Y33382D01*
X30837Y36308D01*
X28768Y38377D01*
X25842Y38377D01*
X23729Y36264D01*
X23723Y36230D01*
X23562Y35978D01*
X23316Y35809D01*
X23023Y35750D01*
X15766Y35750D01*
X15485Y35805D01*
X15236Y35970D01*
X14384Y36822D01*
X12286Y36822D01*
X10803Y35339D01*
X10803Y33763D01*
X10748Y33481D01*
X10583Y33232D01*
X7946Y30595D01*
X7719Y30440D01*
X7428Y30376D01*
X7134Y30430D01*
X6886Y30595D01*
X5349Y32132D01*
X3251Y32132D01*
X1768Y30649D01*
X1768Y30073D01*
X1713Y29791D01*
X1548Y29542D01*
X1312Y29306D01*
X1096Y29156D01*
X806Y29087D01*
X512Y29137D01*
X260Y29298D01*
X91Y29544D01*
X32Y29837D01*
X32Y30256D01*
X-1873Y32161D01*
X-2002Y32243D01*
X-2171Y32489D01*
X-2230Y32782D01*
X-2230Y40147D01*
X-8853Y46770D01*
X-11480Y46770D01*
X-11750Y46820D01*
X-12002Y46981D01*
X-12171Y47227D01*
X-12230Y47520D01*
X-12230Y49480D01*
X-12180Y49750D01*
X-12019Y50002D01*
X-11773Y50171D01*
X-11480Y50230D01*
X-5829Y50230D01*
X-5547Y50175D01*
X-5298Y50010D01*
X-5256Y49968D01*
X-2744Y49968D01*
X-968Y51744D01*
X-968Y54256D01*
X-2744Y56032D01*
X-5256Y56032D01*
X-5298Y55990D01*
X-5536Y55829D01*
X-5829Y55770D01*
X-16147Y55770D01*
X-17770Y54147D01*
X-17770Y42853D01*
X-16147Y41230D01*
X-11458Y41230D01*
X-11177Y41175D01*
X-10928Y41010D01*
X-7990Y38072D01*
X-7829Y37835D01*
X-7770Y37542D01*
X-7770Y29853D01*
X-6252Y28334D01*
X-6091Y28097D01*
X-6032Y27804D01*
X-6032Y27655D01*
X-6082Y27385D01*
X-6243Y27133D01*
X-6489Y26964D01*
X-6782Y26905D01*
X-10789Y26905D01*
X-11569Y26125D01*
X-11807Y25964D01*
X-12100Y25905D01*
X-33468Y25905D01*
X-33738Y25955D01*
X-33990Y26116D01*
X-34159Y26362D01*
X-34218Y26655D01*
X-34218Y27567D01*
X-36433Y29782D01*
X-39567Y29782D01*
X-41782Y27567D01*
X-41782Y24433D01*
X-39567Y22218D01*
X-37223Y22218D01*
X-36941Y22163D01*
X-36838Y22095D01*
X-10211Y22095D01*
X-9431Y22875D01*
X-9193Y23036D01*
X-8900Y23095D01*
X-5917Y23095D01*
X-5647Y23045D01*
X-5395Y22884D01*
X-5226Y22638D01*
X-5167Y22345D01*
X-5167Y19492D01*
X-3098Y17423D01*
X-172Y17423D01*
X1235Y18830D01*
X1473Y18991D01*
X1766Y19050D01*
X1789Y19050D01*
X11150Y28411D01*
X11366Y28561D01*
X11656Y28630D01*
X11950Y28580D01*
X12202Y28419D01*
X12371Y28173D01*
X12430Y27880D01*
X12430Y20276D01*
X12375Y19994D01*
X12210Y19745D01*
X11708Y19243D01*
X11708Y17888D01*
X11653Y17606D01*
X11488Y17357D01*
X-1905Y3964D01*
X-1905Y-11839D01*
X-1960Y-12121D01*
X-2125Y-12370D01*
X-2870Y-13115D01*
X-3108Y-13276D01*
X-3401Y-13335D01*
X-16284Y-13335D01*
X-16566Y-13280D01*
X-16815Y-13115D01*
X-18222Y-11708D01*
X-21148Y-11708D01*
X-23217Y-13777D01*
X-23217Y-16703D01*
X-21148Y-18772D01*
G37*
G36*
X175311Y-70235D02*
X178229Y-70235D01*
X180925Y-69118D01*
X182988Y-67055D01*
X184105Y-64359D01*
X184105Y-62880D01*
X184151Y-62621D01*
X184308Y-62367D01*
X184552Y-62194D01*
X184843Y-62130D01*
X185136Y-62185D01*
X185385Y-62349D01*
X186536Y-63500D01*
X204879Y-63500D01*
X205161Y-63555D01*
X205410Y-63720D01*
X206817Y-65127D01*
X209743Y-65127D01*
X211812Y-63058D01*
X211812Y-60132D01*
X209743Y-58063D01*
X206817Y-58063D01*
X205410Y-59470D01*
X205172Y-59631D01*
X204879Y-59690D01*
X188425Y-59690D01*
X188143Y-59635D01*
X187894Y-59470D01*
X181129Y-52705D01*
X181083Y-52705D01*
X180829Y-52661D01*
X180574Y-52506D01*
X180399Y-52264D01*
X180333Y-51973D01*
X180385Y-51679D01*
X180548Y-51429D01*
X180796Y-51262D01*
X184845Y-49585D01*
X188855Y-45575D01*
X190121Y-42517D01*
X190267Y-42291D01*
X190511Y-42118D01*
X190802Y-42054D01*
X191096Y-42109D01*
X191345Y-42274D01*
X192185Y-43114D01*
X192346Y-43352D01*
X192405Y-43645D01*
X192405Y-45494D01*
X192350Y-45776D01*
X192185Y-46025D01*
X190778Y-47432D01*
X190778Y-50358D01*
X192847Y-52427D01*
X195773Y-52427D01*
X197842Y-50358D01*
X197842Y-48792D01*
X197888Y-48533D01*
X198045Y-48279D01*
X198289Y-48106D01*
X198580Y-48042D01*
X198873Y-48097D01*
X199122Y-48262D01*
X200445Y-49585D01*
X205684Y-51755D01*
X211356Y-51755D01*
X216595Y-49585D01*
X220605Y-45575D01*
X222775Y-40336D01*
X222775Y-34664D01*
X220605Y-29425D01*
X216595Y-25415D01*
X211356Y-23245D01*
X205684Y-23245D01*
X200445Y-25415D01*
X196435Y-29425D01*
X195118Y-32605D01*
X194980Y-32823D01*
X194739Y-32999D01*
X194449Y-33068D01*
X194155Y-33018D01*
X193903Y-32857D01*
X193734Y-32611D01*
X193675Y-32318D01*
X193675Y-18261D01*
X172027Y3387D01*
X171866Y3625D01*
X171807Y3918D01*
X171807Y5908D01*
X169738Y7977D01*
X166812Y7977D01*
X164743Y5908D01*
X164743Y2982D01*
X166812Y913D01*
X168802Y913D01*
X169084Y858D01*
X169333Y693D01*
X189645Y-19619D01*
X189806Y-19857D01*
X189865Y-20150D01*
X189865Y-28625D01*
X189819Y-28884D01*
X189662Y-29138D01*
X189419Y-29311D01*
X189127Y-29375D01*
X188834Y-29320D01*
X188585Y-29155D01*
X184845Y-25415D01*
X179606Y-23245D01*
X173934Y-23245D01*
X168695Y-25415D01*
X164685Y-29425D01*
X162515Y-34664D01*
X162515Y-40336D01*
X164685Y-45575D01*
X168695Y-49585D01*
X172745Y-51262D01*
X172962Y-51400D01*
X173138Y-51641D01*
X173207Y-51931D01*
X173157Y-52225D01*
X172996Y-52477D01*
X172750Y-52646D01*
X172458Y-52705D01*
X98651Y-52705D01*
X98369Y-52650D01*
X98120Y-52485D01*
X96713Y-51078D01*
X95635Y-51078D01*
X95354Y-51023D01*
X95105Y-50858D01*
X89240Y-44993D01*
X89079Y-44755D01*
X89020Y-44463D01*
X89020Y-5547D01*
X89075Y-5266D01*
X89240Y-5017D01*
X90305Y-3952D01*
X90543Y-3791D01*
X90835Y-3732D01*
X91956Y-3732D01*
X93732Y-1956D01*
X93732Y556D01*
X91956Y2332D01*
X89444Y2332D01*
X87668Y556D01*
X87668Y-565D01*
X87613Y-846D01*
X87448Y-1095D01*
X84980Y-3563D01*
X84980Y-46447D01*
X91498Y-52965D01*
X91659Y-53203D01*
X91718Y-53495D01*
X91718Y-56073D01*
X93787Y-58142D01*
X96713Y-58142D01*
X98120Y-56735D01*
X98358Y-56574D01*
X98651Y-56515D01*
X170971Y-56515D01*
X171230Y-56561D01*
X171484Y-56718D01*
X171657Y-56962D01*
X171721Y-57253D01*
X171666Y-57546D01*
X171501Y-57795D01*
X170552Y-58745D01*
X169435Y-61441D01*
X169435Y-64359D01*
X170552Y-67055D01*
X172615Y-69118D01*
X175311Y-70235D01*
G37*
G36*
X14794Y-16532D02*
X17306Y-16532D01*
X19122Y-14716D01*
X19137Y-14641D01*
X19302Y-14392D01*
X20569Y-13125D01*
X20807Y-12964D01*
X21100Y-12905D01*
X27246Y-12905D01*
X27527Y-12960D01*
X27776Y-13125D01*
X29433Y-14782D01*
X32567Y-14782D01*
X34782Y-12567D01*
X34782Y-9433D01*
X32567Y-7218D01*
X29433Y-7218D01*
X27776Y-8875D01*
X27538Y-9036D01*
X27246Y-9095D01*
X19211Y-9095D01*
X18058Y-10248D01*
X17820Y-10409D01*
X17527Y-10468D01*
X14794Y-10468D01*
X13018Y-12244D01*
X13018Y-14756D01*
X14794Y-16532D01*
G37*
G36*
X97597Y-25122D02*
X100523Y-25122D01*
X102592Y-23053D01*
X102592Y-21063D01*
X102647Y-20781D01*
X102812Y-20532D01*
X106045Y-17299D01*
X106045Y-15321D01*
X106100Y-15040D01*
X106265Y-14791D01*
X106672Y-14384D01*
X106672Y-12286D01*
X105189Y-10803D01*
X103091Y-10803D01*
X101608Y-12286D01*
X101608Y-14384D01*
X102015Y-14791D01*
X102176Y-15029D01*
X102235Y-15321D01*
X102235Y-15410D01*
X102180Y-15692D01*
X102015Y-15941D01*
X100118Y-17838D01*
X99880Y-17999D01*
X99587Y-18058D01*
X97597Y-18058D01*
X95528Y-20127D01*
X95528Y-23053D01*
X97597Y-25122D01*
G37*
G36*
X9332Y-47347D02*
X12258Y-47347D01*
X14327Y-45278D01*
X14327Y-42352D01*
X12920Y-40945D01*
X12759Y-40707D01*
X12700Y-40414D01*
X12700Y-35786D01*
X12755Y-35504D01*
X12920Y-35255D01*
X14327Y-33848D01*
X14327Y-30922D01*
X12258Y-28853D01*
X9332Y-28853D01*
X7263Y-30922D01*
X7263Y-33848D01*
X8670Y-35255D01*
X8831Y-35493D01*
X8890Y-35786D01*
X8890Y-40414D01*
X8835Y-40696D01*
X8670Y-40945D01*
X7263Y-42352D01*
X7263Y-45278D01*
X9332Y-47347D01*
G37*
G36*
X-956Y-107232D02*
X1556Y-107232D01*
X3332Y-105456D01*
X3332Y-102944D01*
X1556Y-101168D01*
X435Y-101168D01*
X154Y-101113D01*
X-95Y-100948D01*
X-20760Y-80283D01*
X-20921Y-80045D01*
X-20980Y-79753D01*
X-20980Y-46163D01*
X-22163Y-44980D01*
X-48837Y-44980D01*
X-50020Y-46163D01*
X-50020Y-58079D01*
X-50075Y-58360D01*
X-50240Y-58609D01*
X-50332Y-58701D01*
X-50332Y-60799D01*
X-50240Y-60891D01*
X-50079Y-61129D01*
X-50020Y-61421D01*
X-50020Y-61837D01*
X-48837Y-63020D01*
X-47163Y-63020D01*
X-45780Y-61637D01*
X-45780Y-61621D01*
X-45725Y-61340D01*
X-45560Y-61091D01*
X-45268Y-60799D01*
X-45268Y-58701D01*
X-45760Y-58209D01*
X-45921Y-57971D01*
X-45980Y-57679D01*
X-45980Y-49770D01*
X-45930Y-49500D01*
X-45769Y-49248D01*
X-45523Y-49079D01*
X-45230Y-49020D01*
X-25770Y-49020D01*
X-25500Y-49070D01*
X-25248Y-49231D01*
X-25079Y-49477D01*
X-25020Y-49770D01*
X-25020Y-81737D01*
X-2952Y-103805D01*
X-2791Y-104043D01*
X-2732Y-104335D01*
X-2732Y-105456D01*
X-956Y-107232D01*
G37*
G36*
X205684Y-102555D02*
X211356Y-102555D01*
X216595Y-100385D01*
X220605Y-96375D01*
X222775Y-91136D01*
X222775Y-85464D01*
X220605Y-80225D01*
X216595Y-76215D01*
X211356Y-74045D01*
X205684Y-74045D01*
X200445Y-76215D01*
X196435Y-80225D01*
X194265Y-85464D01*
X194265Y-91136D01*
X196435Y-96375D01*
X200445Y-100385D01*
X205684Y-102555D01*
G37*
G36*
X173934Y-102555D02*
X179606Y-102555D01*
X184845Y-100385D01*
X188855Y-96375D01*
X191025Y-91136D01*
X191025Y-85464D01*
X188855Y-80225D01*
X184845Y-76215D01*
X179606Y-74045D01*
X173934Y-74045D01*
X168695Y-76215D01*
X164685Y-80225D01*
X162515Y-85464D01*
X162515Y-91136D01*
X164685Y-96375D01*
X168695Y-100385D01*
X173934Y-102555D01*
G37*
G36*
X-137353Y-134342D02*
X-134427Y-134342D01*
X-133020Y-132935D01*
X-132782Y-132774D01*
X-132489Y-132715D01*
X-126211Y-132715D01*
X-118533Y-125037D01*
X-118295Y-124876D01*
X-118002Y-124817D01*
X-116012Y-124817D01*
X-113943Y-122748D01*
X-113943Y-119822D01*
X-116012Y-117753D01*
X-118938Y-117753D01*
X-121007Y-119822D01*
X-121007Y-121812D01*
X-121062Y-122094D01*
X-121227Y-122343D01*
X-127569Y-128685D01*
X-127807Y-128846D01*
X-128100Y-128905D01*
X-132489Y-128905D01*
X-132771Y-128850D01*
X-133020Y-128685D01*
X-134427Y-127278D01*
X-137353Y-127278D01*
X-139422Y-129347D01*
X-139422Y-132273D01*
X-137353Y-134342D01*
G37*
G36*
X13618Y-152414D02*
X25338Y-152414D01*
X26082Y-151670D01*
X26082Y-139950D01*
X25338Y-139206D01*
X13618Y-139206D01*
X12874Y-139950D01*
X12874Y-151670D01*
X13618Y-152414D01*
G37*
G36*
X-23338Y-152414D02*
X-11618Y-152414D01*
X-10874Y-151670D01*
X-10874Y-139950D01*
X-11618Y-139206D01*
X-23338Y-139206D01*
X-24082Y-139950D01*
X-24082Y-151670D01*
X-23338Y-152414D01*
G37*
G36*
X-96264Y-152414D02*
X-84544Y-152414D01*
X-83800Y-151670D01*
X-83800Y-139950D01*
X-84544Y-139206D01*
X-96264Y-139206D01*
X-97008Y-139950D01*
X-97008Y-151670D01*
X-96264Y-152414D01*
G37*
G36*
X-133220Y-152414D02*
X-121500Y-152414D01*
X-120756Y-151670D01*
X-120756Y-139950D01*
X-121500Y-139206D01*
X-133220Y-139206D01*
X-133964Y-139950D01*
X-133964Y-151670D01*
X-133220Y-152414D01*
G37*
G36*
X123096Y-152704D02*
X134816Y-152704D01*
X135560Y-151960D01*
X135560Y-140240D01*
X134816Y-139496D01*
X123096Y-139496D01*
X122352Y-140240D01*
X122352Y-151960D01*
X123096Y-152704D01*
G37*
G36*
X86140Y-152704D02*
X97860Y-152704D01*
X98604Y-151960D01*
X98604Y-140240D01*
X97860Y-139496D01*
X86140Y-139496D01*
X85396Y-140240D01*
X85396Y-151960D01*
X86140Y-152704D01*
G37*
%LPD*%
G36*
X-37679Y131555D02*
X-36500Y131688D01*
X-35321Y131555D01*
X-34200Y131163D01*
X-33195Y130532D01*
X-32356Y129693D01*
X-31725Y128688D01*
X-31333Y127567D01*
X-31200Y126391D01*
X-31200Y115385D01*
X-31333Y114209D01*
X-31725Y113088D01*
X-32356Y112083D01*
X-33195Y111244D01*
X-34200Y110613D01*
X-35321Y110221D01*
X-36500Y110088D01*
X-37679Y110221D01*
X-38800Y110613D01*
X-39805Y111244D01*
X-40644Y112083D01*
X-41275Y113088D01*
X-41667Y114209D01*
X-41800Y115385D01*
X-41800Y126391D01*
X-41667Y127567D01*
X-41275Y128688D01*
X-40644Y129693D01*
X-39805Y130532D01*
X-38800Y131163D01*
X-37679Y131555D01*
G37*
G36*
X-37679Y131555D02*
X-36500Y131688D01*
X-35321Y131555D01*
X-34200Y131163D01*
X-33195Y130532D01*
X-32356Y129693D01*
X-31725Y128688D01*
X-31333Y127567D01*
X-31200Y126391D01*
X-31200Y115385D01*
X-31333Y114209D01*
X-31725Y113088D01*
X-32356Y112083D01*
X-33195Y111244D01*
X-34200Y110613D01*
X-35321Y110221D01*
X-36500Y110088D01*
X-37679Y110221D01*
X-38800Y110613D01*
X-39805Y111244D01*
X-40644Y112083D01*
X-41275Y113088D01*
X-41667Y114209D01*
X-41800Y115385D01*
X-41800Y126391D01*
X-41667Y127567D01*
X-41275Y128688D01*
X-40644Y129693D01*
X-39805Y130532D01*
X-38800Y131163D01*
X-37679Y131555D01*
G37*
G36*
X48721Y131555D02*
X49900Y131688D01*
X51079Y131555D01*
X52200Y131163D01*
X53205Y130532D01*
X54044Y129693D01*
X54675Y128688D01*
X55067Y127567D01*
X55200Y126391D01*
X55200Y115385D01*
X55067Y114209D01*
X54675Y113088D01*
X54044Y112083D01*
X53205Y111244D01*
X52200Y110613D01*
X51079Y110221D01*
X49900Y110088D01*
X48721Y110221D01*
X47600Y110613D01*
X46595Y111244D01*
X45756Y112083D01*
X45125Y113088D01*
X44733Y114209D01*
X44600Y115385D01*
X44600Y126391D01*
X44733Y127567D01*
X45125Y128688D01*
X45756Y129693D01*
X46595Y130532D01*
X47600Y131163D01*
X48721Y131555D01*
G37*
G36*
X48721Y131555D02*
X49900Y131688D01*
X51079Y131555D01*
X52200Y131163D01*
X53205Y130532D01*
X54044Y129693D01*
X54675Y128688D01*
X55067Y127567D01*
X55200Y126391D01*
X55200Y115385D01*
X55067Y114209D01*
X54675Y113088D01*
X54044Y112083D01*
X53205Y111244D01*
X52200Y110613D01*
X51079Y110221D01*
X49900Y110088D01*
X48721Y110221D01*
X47600Y110613D01*
X46595Y111244D01*
X45756Y112083D01*
X45125Y113088D01*
X44733Y114209D01*
X44600Y115385D01*
X44600Y126391D01*
X44733Y127567D01*
X45125Y128688D01*
X45756Y129693D01*
X46595Y130532D01*
X47600Y131163D01*
X48721Y131555D01*
G37*
G36*
X-37679Y171555D02*
X-36500Y171688D01*
X-35321Y171555D01*
X-34200Y171163D01*
X-33195Y170532D01*
X-32356Y169693D01*
X-31725Y168688D01*
X-31333Y167567D01*
X-31200Y166391D01*
X-31200Y158385D01*
X-31333Y157209D01*
X-31725Y156088D01*
X-32356Y155083D01*
X-33195Y154244D01*
X-34200Y153613D01*
X-35321Y153221D01*
X-36500Y153088D01*
X-37679Y153221D01*
X-38800Y153613D01*
X-39805Y154244D01*
X-40644Y155083D01*
X-41275Y156088D01*
X-41667Y157209D01*
X-41800Y158385D01*
X-41800Y166391D01*
X-41667Y167567D01*
X-41275Y168688D01*
X-40644Y169693D01*
X-39805Y170532D01*
X-38800Y171163D01*
X-37679Y171555D01*
G37*
G36*
X-37679Y171555D02*
X-36500Y171688D01*
X-35321Y171555D01*
X-34200Y171163D01*
X-33195Y170532D01*
X-32356Y169693D01*
X-31725Y168688D01*
X-31333Y167567D01*
X-31200Y166391D01*
X-31200Y158385D01*
X-31333Y157209D01*
X-31725Y156088D01*
X-32356Y155083D01*
X-33195Y154244D01*
X-34200Y153613D01*
X-35321Y153221D01*
X-36500Y153088D01*
X-37679Y153221D01*
X-38800Y153613D01*
X-39805Y154244D01*
X-40644Y155083D01*
X-41275Y156088D01*
X-41667Y157209D01*
X-41800Y158385D01*
X-41800Y166391D01*
X-41667Y167567D01*
X-41275Y168688D01*
X-40644Y169693D01*
X-39805Y170532D01*
X-38800Y171163D01*
X-37679Y171555D01*
G37*
G36*
X48721Y171555D02*
X49900Y171688D01*
X51079Y171555D01*
X52200Y171163D01*
X53205Y170532D01*
X54044Y169693D01*
X54675Y168688D01*
X55067Y167567D01*
X55200Y166391D01*
X55200Y158385D01*
X55067Y157209D01*
X54675Y156088D01*
X54044Y155083D01*
X53205Y154244D01*
X52200Y153613D01*
X51079Y153221D01*
X49900Y153088D01*
X48721Y153221D01*
X47600Y153613D01*
X46595Y154244D01*
X45756Y155083D01*
X45125Y156088D01*
X44733Y157209D01*
X44600Y158385D01*
X44600Y166391D01*
X44733Y167567D01*
X45125Y168688D01*
X45756Y169693D01*
X46595Y170532D01*
X47600Y171163D01*
X48721Y171555D01*
G37*
G36*
X48721Y171555D02*
X49900Y171688D01*
X51079Y171555D01*
X52200Y171163D01*
X53205Y170532D01*
X54044Y169693D01*
X54675Y168688D01*
X55067Y167567D01*
X55200Y166391D01*
X55200Y158385D01*
X55067Y157209D01*
X54675Y156088D01*
X54044Y155083D01*
X53205Y154244D01*
X52200Y153613D01*
X51079Y153221D01*
X49900Y153088D01*
X48721Y153221D01*
X47600Y153613D01*
X46595Y154244D01*
X45756Y155083D01*
X45125Y156088D01*
X44733Y157209D01*
X44600Y158385D01*
X44600Y166391D01*
X44733Y167567D01*
X45125Y168688D01*
X45756Y169693D01*
X46595Y170532D01*
X47600Y171163D01*
X48721Y171555D01*
G37*
D10*
X49900Y162388D03*
X-36500Y162388D03*
X49900Y120888D03*
X-36500Y120888D03*
D11*
X84700Y32800D03*
X72700Y32800D03*
X72700Y44800D03*
X84700Y44800D03*
X96700Y44800D03*
X108700Y44800D03*
X108700Y32800D03*
X96700Y32800D03*
X72700Y20800D03*
X84700Y20800D03*
X96700Y20800D03*
X108700Y20800D03*
X108700Y8800D03*
X96700Y8800D03*
X84700Y8800D03*
X72700Y8800D03*
D12*
X-90404Y-145810D03*
X-127360Y-145810D03*
X19478Y-145810D03*
X-17478Y-145810D03*
X128956Y-146100D03*
X92000Y-146100D03*
D13*
X69215Y41275D02*
X53340Y41275D01*
X69215Y41275D02*
X72390Y44450D01*
X72700Y44800D01*
X109220Y8255D02*
X109220Y-16510D01*
X109220Y8255D02*
X108700Y8800D01*
X41275Y-25400D02*
X11430Y-25400D01*
X635Y-25400D01*
X41275Y-25400D02*
X72390Y5715D01*
X72390Y8255D01*
X72700Y8800D01*
X11430Y-18415D02*
X11430Y-25400D01*
X4635Y-29400D02*
X635Y-25400D01*
X4635Y-29400D02*
X4635Y-114110D01*
X635Y-118110D01*
X-11430Y-130175D02*
X-22225Y-130175D01*
X-11430Y-130175D02*
X635Y-118110D01*
X9525Y97790D02*
X26670Y97790D01*
X9525Y97790D02*
X-6350Y97790D01*
X35560Y106680D02*
X49530Y120650D01*
X35560Y106680D02*
X26670Y97790D01*
X49530Y120650D02*
X49900Y120888D01*
X35560Y106680D02*
X51435Y90805D01*
X9525Y97790D02*
X9525Y126365D01*
X6985Y128905D01*
X-10160Y128905D01*
X-19685Y119380D01*
X-34925Y119380D01*
X-36195Y120650D01*
X-36500Y120888D01*
D14*
X53340Y41275D03*
X109220Y-16510D03*
X635Y-25400D03*
X11430Y-18415D03*
X635Y-118110D03*
X-22225Y-130175D03*
X-6350Y97790D03*
X51435Y90805D03*
D15*
X-70000Y130000D03*
D13*
X-72000Y130000D01*
X-81000Y121000D01*
D15*
X-81000Y121000D03*
D13*
X128905Y78740D02*
X128905Y31750D01*
D14*
X128905Y31750D03*
X128905Y78740D03*
D13*
X122555Y78740D02*
X122555Y39370D01*
X122555Y78740D02*
X134620Y90805D01*
D14*
X122555Y39370D03*
X134620Y90805D03*
D13*
X194310Y-42545D02*
X194310Y-48895D01*
X194310Y-42545D02*
X191770Y-40005D01*
X191770Y-19050D01*
X168275Y4445D01*
D14*
X194310Y-48895D03*
X168275Y4445D03*
D16*
X54610Y57785D02*
X54610Y60325D01*
X59690Y65405D01*
X-52705Y88900D02*
X-52705Y104140D01*
X-52705Y114300D01*
X-52705Y88900D02*
X-24765Y60960D01*
X22225Y60960D02*
X53340Y60960D01*
X22225Y60960D02*
X-24765Y60960D01*
X53340Y60960D02*
X54610Y60325D01*
X-52705Y104140D02*
X-59690Y104140D01*
X62230Y67310D02*
X102870Y67310D01*
X62230Y67310D02*
X60960Y66040D01*
X59690Y65405D01*
X117475Y52070D02*
X117475Y0D01*
X117475Y52070D02*
X103505Y66040D01*
X102870Y67310D01*
X22225Y60960D02*
X22225Y59690D01*
D14*
X54610Y57785D03*
X59690Y65405D03*
X-52705Y114300D03*
X-59690Y104140D03*
X102870Y67310D03*
X117475Y0D03*
X22225Y59690D03*
D13*
X104140Y-13335D02*
X104140Y-16510D01*
X99060Y-21590D01*
D17*
X104140Y-13335D03*
D14*
X99060Y-21590D03*
D13*
X187325Y-61595D02*
X208280Y-61595D01*
X187325Y-61595D02*
X180340Y-54610D01*
X96000Y-54610D02*
X95250Y-54610D01*
X96000Y-54610D02*
X180340Y-54610D01*
D14*
X208280Y-61595D03*
X95250Y-54610D03*
D15*
X90700Y-700D03*
D18*
X87000Y-4400D01*
X87000Y-45610D01*
X96000Y-54610D01*
D16*
X50800Y-9525D02*
X19415Y21860D01*
X18415Y21860D01*
X18415Y22860D01*
D17*
X18415Y22860D03*
D14*
X50800Y-9525D03*
D15*
X-3000Y29000D03*
D16*
X-5000Y31000D01*
X-5000Y39000D01*
X-10000Y44000D01*
X-15000Y44000D01*
X-15000Y53000D01*
X-4000Y53000D01*
D15*
X-4000Y53000D03*
D17*
X52000Y15000D03*
D13*
X39000Y15000D01*
X27000Y27000D01*
X18000Y27000D01*
D17*
X18000Y27000D03*
D15*
X63200Y21800D03*
D13*
X63200Y20800D01*
X46400Y4000D01*
X46000Y4000D01*
D19*
X46000Y4000D03*
X31000Y-11000D03*
D13*
X20000Y-11000D01*
X17500Y-13500D01*
X16050Y-13500D01*
D15*
X16050Y-13500D03*
D13*
X14335Y18685D02*
X14335Y29940D01*
X14335Y18685D02*
X15240Y17780D01*
X0Y3175D02*
X0Y-15240D01*
X0Y3175D02*
X14605Y17780D01*
X15240Y17780D01*
X0Y-15240D02*
X-19685Y-15240D01*
D17*
X14335Y29940D03*
D14*
X15240Y17780D03*
X0Y-15240D03*
X-19685Y-15240D03*
D17*
X63200Y26800D03*
D13*
X37800Y26800D01*
X36000Y25000D01*
X34000Y25000D01*
X29060Y29940D01*
X14335Y29940D01*
X10795Y-32385D02*
X10795Y-43815D01*
X13335Y33290D02*
X13335Y34290D01*
X13335Y33290D02*
X1000Y20955D01*
X-1635Y20955D01*
X26305Y33845D02*
X27305Y34845D01*
X26305Y33845D02*
X13780Y33845D01*
X13335Y34290D01*
D14*
X10795Y-32385D03*
X10795Y-43815D03*
D17*
X13335Y34290D03*
D14*
X-1635Y20955D03*
X27305Y34845D03*
D13*
X17145Y71755D02*
X45720Y71755D01*
D14*
X45720Y71755D03*
X17145Y71755D03*
D16*
X-57150Y127635D02*
X-57150Y131445D01*
X-52070Y136525D01*
X-50800Y80645D02*
X-50800Y36195D01*
X-50800Y80645D02*
X-64770Y94615D01*
X-64770Y119380D01*
X-57785Y126365D01*
X-57150Y127635D01*
D14*
X-57150Y127635D03*
X-52070Y136525D03*
X-50800Y36195D03*
D17*
X4300Y29600D03*
D13*
X-300Y25000D01*
X-10000Y25000D01*
X-11000Y24000D01*
X-36000Y24000D01*
X-38000Y26000D01*
D19*
X-38000Y26000D03*
D13*
X-40640Y108585D02*
X-52705Y120650D01*
X-40640Y108585D02*
X-40640Y90805D01*
D14*
X-52705Y120650D03*
X-40640Y90805D03*
D13*
X-120015Y88900D02*
X-128905Y97790D01*
X-150495Y-76835D02*
X-154940Y-76835D01*
X-150495Y-76835D02*
X-120650Y-46990D01*
X-120650Y88900D01*
X-120015Y88900D01*
D14*
X-120015Y88900D03*
X-128905Y97790D03*
X-154940Y-76835D03*
D13*
X-135255Y-3810D02*
X-135255Y29210D01*
X-135255Y-49530D02*
X-187325Y-101600D01*
X-135255Y-49530D02*
X-135255Y-3810D01*
D14*
X-135255Y29210D03*
X-135255Y-3810D03*
X-187325Y-101600D03*
D13*
X-130810Y-50800D02*
X-130810Y52070D01*
X-165735Y86995D01*
D14*
X-130810Y-50800D03*
X-165735Y86995D03*
D16*
X-133350Y109855D02*
X-114935Y91440D01*
X-114935Y-111125D01*
D14*
X-133350Y109855D03*
X-114935Y-111125D03*
D15*
X300Y-104200D03*
D18*
X-23000Y-80900D01*
X-23000Y-47000D01*
X-48000Y-47000D01*
X-48000Y-61000D01*
X-47800Y-60800D01*
X-47800Y-59750D01*
D17*
X-47800Y-59750D03*
D13*
X-127000Y-130810D02*
X-135890Y-130810D01*
X-127000Y-130810D02*
X-117475Y-121285D01*
D14*
X-135890Y-130810D03*
X-117475Y-121285D03*
D13*
X-28575Y72390D02*
X-28575Y90805D01*
X5080Y124460D01*
D14*
X-28575Y72390D03*
X5080Y124460D03*
M02*
