G04 EAGLE Gerber RS-274X export*
G75*
%MOMM*%
%FSLAX34Y34*%
%LPD*%
%IN*%
%IPPOS*%
%AMOC8*
5,1,8,0,0,1.08239X$1,22.5*%
G01*
G04 Define Apertures*
%ADD10C,0.254000*%
D10*
X-230000Y-105000D02*
X-229734Y-111101D01*
X-228937Y-117155D01*
X-227615Y-123117D01*
X-225778Y-128941D01*
X-223442Y-134583D01*
X-220622Y-140000D01*
X-217341Y-145150D01*
X-213623Y-149995D01*
X-209497Y-154497D01*
X-204995Y-158623D01*
X-200150Y-162341D01*
X-195000Y-165622D01*
X-189583Y-168442D01*
X-183941Y-170778D01*
X-178117Y-172615D01*
X-172155Y-173937D01*
X-166101Y-174734D01*
X-160000Y-175000D01*
X-134000Y-175000D01*
X-134000Y-157000D01*
X-86000Y-157000D01*
X-86000Y-175000D01*
X-24000Y-175000D01*
X-24000Y-157000D01*
X24000Y-157000D01*
X24000Y-175000D01*
X86000Y-175000D01*
X86000Y-157000D01*
X134000Y-157000D01*
X134000Y-175000D01*
X160000Y-175000D01*
X166230Y-174684D01*
X172408Y-173827D01*
X178489Y-172434D01*
X184424Y-170517D01*
X190170Y-168090D01*
X195683Y-165171D01*
X200920Y-161783D01*
X205842Y-157951D01*
X210412Y-153705D01*
X214594Y-149076D01*
X218356Y-144101D01*
X221671Y-138817D01*
X224512Y-133264D01*
X226859Y-127485D01*
X228693Y-121523D01*
X230001Y-115423D01*
X230772Y-109234D01*
X231000Y-103000D01*
X230000Y90000D01*
X230000Y105000D01*
X229890Y108923D01*
X229282Y115000D01*
X228147Y121000D01*
X179000Y121000D01*
X168000Y132000D01*
X168000Y163000D01*
X156000Y175000D01*
X-160000Y175000D01*
X-166101Y174734D01*
X-172155Y173937D01*
X-178117Y172615D01*
X-183941Y170778D01*
X-189583Y168442D01*
X-195000Y165622D01*
X-200150Y162341D01*
X-204995Y158623D01*
X-209497Y154497D01*
X-213623Y149995D01*
X-217341Y145150D01*
X-220622Y140000D01*
X-223442Y134583D01*
X-225778Y128941D01*
X-227615Y123117D01*
X-228937Y117155D01*
X-229734Y111101D01*
X-230000Y105000D01*
X-230000Y69000D01*
X-160000Y69000D01*
X-160000Y-69000D01*
X-230000Y-69000D01*
X-230000Y-105000D01*
X-39750Y115388D02*
X-39738Y115105D01*
X-39701Y114824D01*
X-39639Y114547D01*
X-39554Y114276D01*
X-39446Y114015D01*
X-39315Y113763D01*
X-39162Y113524D01*
X-38990Y113299D01*
X-38798Y113090D01*
X-38589Y112898D01*
X-38364Y112726D01*
X-38125Y112573D01*
X-37874Y112443D01*
X-37612Y112334D01*
X-37341Y112249D01*
X-37064Y112187D01*
X-36783Y112150D01*
X-36500Y112138D01*
X-36217Y112150D01*
X-35936Y112187D01*
X-35659Y112249D01*
X-35388Y112334D01*
X-35127Y112443D01*
X-34875Y112573D01*
X-34636Y112726D01*
X-34411Y112898D01*
X-34202Y113090D01*
X-34010Y113299D01*
X-33838Y113524D01*
X-33685Y113763D01*
X-33555Y114015D01*
X-33446Y114276D01*
X-33361Y114547D01*
X-33299Y114824D01*
X-33262Y115105D01*
X-33250Y115388D01*
X-33250Y126388D01*
X-33262Y126671D01*
X-33299Y126952D01*
X-33361Y127229D01*
X-33446Y127500D01*
X-33555Y127762D01*
X-33685Y128013D01*
X-33838Y128252D01*
X-34010Y128477D01*
X-34202Y128686D01*
X-34411Y128878D01*
X-34636Y129050D01*
X-34875Y129203D01*
X-35127Y129334D01*
X-35388Y129442D01*
X-35659Y129527D01*
X-35936Y129589D01*
X-36217Y129626D01*
X-36500Y129638D01*
X-36783Y129626D01*
X-37064Y129589D01*
X-37341Y129527D01*
X-37612Y129442D01*
X-37874Y129334D01*
X-38125Y129203D01*
X-38364Y129050D01*
X-38589Y128878D01*
X-38798Y128686D01*
X-38990Y128477D01*
X-39162Y128252D01*
X-39315Y128013D01*
X-39446Y127762D01*
X-39554Y127500D01*
X-39639Y127229D01*
X-39701Y126952D01*
X-39738Y126671D01*
X-39750Y126388D01*
X-39750Y115388D01*
X46650Y115388D02*
X46662Y115105D01*
X46699Y114824D01*
X46761Y114547D01*
X46846Y114276D01*
X46955Y114015D01*
X47085Y113763D01*
X47238Y113524D01*
X47410Y113299D01*
X47602Y113090D01*
X47811Y112898D01*
X48036Y112726D01*
X48275Y112573D01*
X48527Y112443D01*
X48788Y112334D01*
X49059Y112249D01*
X49336Y112187D01*
X49617Y112150D01*
X49900Y112138D01*
X50183Y112150D01*
X50464Y112187D01*
X50741Y112249D01*
X51012Y112334D01*
X51274Y112443D01*
X51525Y112573D01*
X51764Y112726D01*
X51989Y112898D01*
X52198Y113090D01*
X52390Y113299D01*
X52562Y113524D01*
X52715Y113763D01*
X52846Y114015D01*
X52954Y114276D01*
X53039Y114547D01*
X53101Y114824D01*
X53138Y115105D01*
X53150Y115388D01*
X53150Y126388D01*
X53138Y126671D01*
X53101Y126952D01*
X53039Y127229D01*
X52954Y127500D01*
X52846Y127762D01*
X52715Y128013D01*
X52562Y128252D01*
X52390Y128477D01*
X52198Y128686D01*
X51989Y128878D01*
X51764Y129050D01*
X51525Y129203D01*
X51274Y129334D01*
X51012Y129442D01*
X50741Y129527D01*
X50464Y129589D01*
X50183Y129626D01*
X49900Y129638D01*
X49617Y129626D01*
X49336Y129589D01*
X49059Y129527D01*
X48788Y129442D01*
X48527Y129334D01*
X48275Y129203D01*
X48036Y129050D01*
X47811Y128878D01*
X47602Y128686D01*
X47410Y128477D01*
X47238Y128252D01*
X47085Y128013D01*
X46955Y127762D01*
X46846Y127500D01*
X46761Y127229D01*
X46699Y126952D01*
X46662Y126671D01*
X46650Y126388D01*
X46650Y115388D01*
X-39750Y158388D02*
X-39738Y158105D01*
X-39701Y157824D01*
X-39639Y157547D01*
X-39554Y157276D01*
X-39446Y157015D01*
X-39315Y156763D01*
X-39162Y156524D01*
X-38990Y156299D01*
X-38798Y156090D01*
X-38589Y155898D01*
X-38364Y155726D01*
X-38125Y155573D01*
X-37874Y155443D01*
X-37612Y155334D01*
X-37341Y155249D01*
X-37064Y155187D01*
X-36783Y155150D01*
X-36500Y155138D01*
X-36217Y155150D01*
X-35936Y155187D01*
X-35659Y155249D01*
X-35388Y155334D01*
X-35127Y155443D01*
X-34875Y155573D01*
X-34636Y155726D01*
X-34411Y155898D01*
X-34202Y156090D01*
X-34010Y156299D01*
X-33838Y156524D01*
X-33685Y156763D01*
X-33555Y157015D01*
X-33446Y157276D01*
X-33361Y157547D01*
X-33299Y157824D01*
X-33262Y158105D01*
X-33250Y158388D01*
X-33250Y166388D01*
X-33262Y166671D01*
X-33299Y166952D01*
X-33361Y167229D01*
X-33446Y167500D01*
X-33555Y167762D01*
X-33685Y168013D01*
X-33838Y168252D01*
X-34010Y168477D01*
X-34202Y168686D01*
X-34411Y168878D01*
X-34636Y169050D01*
X-34875Y169203D01*
X-35127Y169334D01*
X-35388Y169442D01*
X-35659Y169527D01*
X-35936Y169589D01*
X-36217Y169626D01*
X-36500Y169638D01*
X-36783Y169626D01*
X-37064Y169589D01*
X-37341Y169527D01*
X-37612Y169442D01*
X-37874Y169334D01*
X-38125Y169203D01*
X-38364Y169050D01*
X-38589Y168878D01*
X-38798Y168686D01*
X-38990Y168477D01*
X-39162Y168252D01*
X-39315Y168013D01*
X-39446Y167762D01*
X-39554Y167500D01*
X-39639Y167229D01*
X-39701Y166952D01*
X-39738Y166671D01*
X-39750Y166388D01*
X-39750Y158388D01*
X46650Y158388D02*
X46662Y158105D01*
X46699Y157824D01*
X46761Y157547D01*
X46846Y157276D01*
X46955Y157015D01*
X47085Y156763D01*
X47238Y156524D01*
X47410Y156299D01*
X47602Y156090D01*
X47811Y155898D01*
X48036Y155726D01*
X48275Y155573D01*
X48527Y155443D01*
X48788Y155334D01*
X49059Y155249D01*
X49336Y155187D01*
X49617Y155150D01*
X49900Y155138D01*
X50183Y155150D01*
X50464Y155187D01*
X50741Y155249D01*
X51012Y155334D01*
X51274Y155443D01*
X51525Y155573D01*
X51764Y155726D01*
X51989Y155898D01*
X52198Y156090D01*
X52390Y156299D01*
X52562Y156524D01*
X52715Y156763D01*
X52846Y157015D01*
X52954Y157276D01*
X53039Y157547D01*
X53101Y157824D01*
X53138Y158105D01*
X53150Y158388D01*
X53150Y166388D01*
X53138Y166671D01*
X53101Y166952D01*
X53039Y167229D01*
X52954Y167500D01*
X52846Y167762D01*
X52715Y168013D01*
X52562Y168252D01*
X52390Y168477D01*
X52198Y168686D01*
X51989Y168878D01*
X51764Y169050D01*
X51525Y169203D01*
X51274Y169334D01*
X51012Y169442D01*
X50741Y169527D01*
X50464Y169589D01*
X50183Y169626D01*
X49900Y169638D01*
X49617Y169626D01*
X49336Y169589D01*
X49059Y169527D01*
X48788Y169442D01*
X48527Y169334D01*
X48275Y169203D01*
X48036Y169050D01*
X47811Y168878D01*
X47602Y168686D01*
X47410Y168477D01*
X47238Y168252D01*
X47085Y168013D01*
X46955Y167762D01*
X46846Y167500D01*
X46761Y167229D01*
X46699Y166952D01*
X46662Y166671D01*
X46650Y166388D01*
X46650Y158388D01*
M02*
