G04 EAGLE Gerber RS-274X export*
G75*
%MOMM*%
%FSLAX34Y34*%
%LPD*%
%INSolderpaste Top*%
%IPPOS*%
%AMOC8*
5,1,8,0,0,1.08239X$1,22.5*%
G01*
G04 Define Apertures*
%ADD10R,1.150000X1.800000*%
%ADD11R,0.430000X0.280000*%
%ADD12R,0.280000X0.430000*%
%ADD13R,0.450000X0.400000*%
%ADD14R,0.600000X0.600000*%
%ADD15R,0.400000X0.450000*%
%ADD16R,0.230000X0.220000*%
%ADD17R,0.220000X0.230000*%
%ADD18R,1.150000X0.800000*%
%ADD19R,0.600000X1.200000*%
%ADD20C,0.200000*%
%ADD21C,0.216000*%
%ADD22R,0.300000X0.350000*%
%ADD23R,0.350000X0.300000*%
%ADD24C,0.250000*%
%ADD25C,0.783000*%
%ADD26R,0.300000X1.150000*%
%ADD27R,0.600000X1.150000*%
%ADD28R,0.700000X0.300000*%
%ADD29R,1.000000X0.300000*%
%ADD30R,5.300000X0.900000*%
%ADD31R,1.200000X2.200000*%
%ADD32R,0.500000X1.050000*%
%ADD33R,0.900000X0.800000*%
%ADD34R,0.350000X0.250000*%
%ADD35R,0.250000X0.350000*%
%ADD36R,1.168400X1.600200*%
%ADD37R,4.850000X4.850000*%
%ADD38R,0.850000X0.950000*%
%ADD39R,0.820000X0.560000*%
%ADD40C,0.067500*%
%ADD41R,1.000000X1.800000*%
%ADD42R,2.200000X1.200000*%
%ADD43R,0.711200X1.092200*%
%ADD44R,1.397000X1.092200*%
G36*
X-132059Y-155462D02*
X-132059Y-148604D01*
X-120375Y-148604D01*
X-120375Y-155462D01*
X-132059Y-155462D01*
G37*
G36*
X-97389Y-155462D02*
X-97389Y-148604D01*
X-85705Y-148604D01*
X-85705Y-155462D01*
X-97389Y-155462D01*
G37*
G36*
X-22177Y-155462D02*
X-22177Y-148604D01*
X-10493Y-148604D01*
X-10493Y-155462D01*
X-22177Y-155462D01*
G37*
G36*
X12493Y-155462D02*
X12493Y-148604D01*
X24177Y-148604D01*
X24177Y-155462D01*
X12493Y-155462D01*
G37*
G36*
X87301Y-155752D02*
X87301Y-148894D01*
X98985Y-148894D01*
X98985Y-155752D01*
X87301Y-155752D01*
G37*
G36*
X121971Y-155752D02*
X121971Y-148894D01*
X133655Y-148894D01*
X133655Y-155752D01*
X121971Y-155752D01*
G37*
D10*
X152800Y142600D03*
X182800Y142600D03*
D11*
X141180Y42050D03*
X141180Y36950D03*
D12*
X129050Y38000D03*
X134150Y38000D03*
X134450Y48500D03*
X129350Y48500D03*
D13*
X111500Y67950D03*
X111500Y74050D03*
X96700Y66950D03*
X96700Y73050D03*
D14*
X59700Y72000D03*
X59700Y83000D03*
X74200Y69570D03*
X74200Y80570D03*
D13*
X87500Y68950D03*
X87500Y75050D03*
X46000Y59950D03*
X46000Y66050D03*
X33500Y41180D03*
X33500Y47280D03*
D15*
X1950Y3000D03*
X8050Y3000D03*
D12*
X158450Y17500D03*
X153350Y17500D03*
D14*
X69200Y-15500D03*
X80200Y-15500D03*
X57200Y-18000D03*
X57200Y-29000D03*
D11*
X175800Y91550D03*
X175800Y86450D03*
D16*
X-87500Y128850D03*
X-87500Y132550D03*
D14*
X-69800Y137150D03*
X-58800Y137150D03*
D16*
X-122500Y-116450D03*
X-122500Y-120150D03*
D17*
X-25750Y-125300D03*
X-22050Y-125300D03*
X-33050Y-90300D03*
X-36750Y-90300D03*
X98550Y-119912D03*
X94850Y-119912D03*
D11*
X142000Y90550D03*
X142000Y85450D03*
D17*
X-8550Y-81300D03*
X-4850Y-81300D03*
X-25150Y-113300D03*
X-21450Y-113300D03*
D16*
X-11100Y30850D03*
X-11100Y34550D03*
X-4500Y43850D03*
X-4500Y47550D03*
D14*
X-43800Y36000D03*
X-43800Y47000D03*
D11*
X166200Y91550D03*
X166200Y86450D03*
D16*
X-21700Y102550D03*
X-21700Y98850D03*
X-37100Y102550D03*
X-37100Y98850D03*
D15*
X49050Y50000D03*
X42950Y50000D03*
D14*
X43200Y-12000D03*
X43200Y-23000D03*
D12*
X93850Y-14500D03*
X98950Y-14500D03*
X123450Y-15500D03*
X118350Y-15500D03*
X128850Y24500D03*
X133950Y24500D03*
D18*
X-165300Y-136012D03*
X-200300Y-136012D03*
X-195728Y-153727D03*
X-160728Y-153727D03*
X-173584Y94893D03*
X-138584Y94893D03*
D19*
X-28700Y61100D03*
X-19200Y61100D03*
X-9700Y61100D03*
X-9700Y86100D03*
X-19200Y86100D03*
X-28700Y86100D03*
D20*
X8300Y25600D03*
X4300Y25600D03*
X8300Y29600D03*
X4300Y29600D03*
X8300Y33600D03*
X4300Y33600D03*
X8300Y37600D03*
X4300Y37600D03*
D21*
X-69400Y124800D03*
X-65400Y124800D03*
X-61400Y124800D03*
X-69400Y120800D03*
X-65400Y120800D03*
X-61400Y120800D03*
X-69400Y116800D03*
X-65400Y116800D03*
X-61400Y116800D03*
X-69400Y112800D03*
X-65400Y112800D03*
X-61400Y112800D03*
X-69400Y108800D03*
X-65400Y108800D03*
X-61400Y108800D03*
D22*
X5800Y-23750D03*
X10800Y-23750D03*
X15800Y-23750D03*
X20800Y-23750D03*
D23*
X21050Y-18500D03*
X21050Y-13500D03*
D22*
X20800Y-8250D03*
X15800Y-8250D03*
X10800Y-8250D03*
X5800Y-8250D03*
D23*
X5550Y-13500D03*
X5550Y-18500D03*
D24*
X-4700Y-99200D03*
X300Y-99200D03*
X5300Y-99200D03*
X-4700Y-104200D03*
X300Y-104200D03*
X5300Y-104200D03*
X-4700Y-109200D03*
X300Y-109200D03*
X5300Y-109200D03*
D25*
X189470Y-69250D03*
X189470Y-56550D03*
X202170Y-69250D03*
X202170Y-56550D03*
X214880Y-69250D03*
X214880Y-56550D03*
D26*
X9200Y115138D03*
X14200Y115138D03*
X19200Y115138D03*
X24200Y115138D03*
X4200Y115138D03*
X-800Y115138D03*
X-5800Y115138D03*
X-10800Y115138D03*
D27*
X38700Y115138D03*
X30700Y115138D03*
X-17300Y115138D03*
X-25300Y115138D03*
D28*
X-123738Y57500D03*
X-123738Y52500D03*
X-123738Y47500D03*
X-123738Y42500D03*
X-123738Y37500D03*
X-123738Y32500D03*
X-123738Y27500D03*
X-123738Y22500D03*
X-123738Y17500D03*
X-123738Y12500D03*
X-123738Y7500D03*
X-123738Y2500D03*
X-123738Y-2500D03*
X-123738Y-7500D03*
X-123738Y-12500D03*
X-123738Y-17500D03*
X-123738Y-22500D03*
X-123738Y-27500D03*
X-123738Y-32500D03*
X-123738Y-37500D03*
X-123738Y-42500D03*
X-123738Y-47500D03*
X-123738Y-52500D03*
X-123738Y-57500D03*
D29*
X-150238Y65400D03*
X-150238Y-65400D03*
D30*
X-187650Y-77262D03*
X-187650Y-122982D03*
D31*
X-66880Y76230D03*
X-46320Y76230D03*
D32*
X-102400Y109430D03*
X-115400Y109430D03*
X-108900Y88430D03*
D33*
X-154014Y135440D03*
X-154014Y154440D03*
X-175014Y144940D03*
D34*
X9700Y11480D03*
X9700Y16980D03*
D35*
X2050Y15210D03*
X-3450Y15210D03*
X-118150Y121700D03*
X-123650Y121700D03*
X11950Y103700D03*
X17450Y103700D03*
X-86450Y110700D03*
X-80950Y110700D03*
X-106350Y122700D03*
X-111850Y122700D03*
X-12250Y103700D03*
X-6750Y103700D03*
X350Y-31300D03*
X5850Y-31300D03*
X-87050Y115700D03*
X-81550Y115700D03*
X-136450Y-136300D03*
X-130950Y-136300D03*
D34*
X89900Y-121520D03*
X89900Y-127020D03*
X-32500Y-121550D03*
X-32500Y-127050D03*
D35*
X4350Y46700D03*
X9850Y46700D03*
D34*
X-143100Y142950D03*
X-143100Y148450D03*
D35*
X-114750Y153700D03*
X-120250Y153700D03*
D36*
X-109180Y138800D03*
X-124420Y138800D03*
D37*
X90700Y26800D03*
D20*
X63200Y26800D03*
X63200Y31800D03*
X63200Y36800D03*
X63200Y41800D03*
X63200Y46800D03*
X58200Y49300D03*
X58200Y39300D03*
X58200Y34300D03*
X58200Y29300D03*
X58200Y24300D03*
X63200Y21800D03*
X63200Y16800D03*
X58200Y19300D03*
X58200Y14300D03*
X58200Y9300D03*
X63200Y6800D03*
X63200Y1800D03*
X63200Y-5700D03*
X68200Y-5700D03*
X70700Y-700D03*
X73200Y-5700D03*
X78200Y-5700D03*
X83200Y-5700D03*
X88200Y-5700D03*
X93200Y-5700D03*
X98200Y-5700D03*
X103200Y-5700D03*
X108200Y-5700D03*
X113200Y-5700D03*
X118200Y-5700D03*
X110700Y-700D03*
X105700Y-700D03*
X100700Y-700D03*
X95700Y-700D03*
X90700Y-700D03*
X85700Y-700D03*
X80700Y-700D03*
X118200Y6800D03*
X123200Y4300D03*
X123200Y-700D03*
X123200Y9300D03*
X118200Y11800D03*
X123200Y14300D03*
X118200Y16800D03*
X118200Y21800D03*
X123200Y19300D03*
X123200Y24300D03*
X123200Y29300D03*
X123200Y34300D03*
X118200Y36800D03*
X118200Y41800D03*
X123200Y44300D03*
X118200Y46800D03*
X123200Y54300D03*
X58200Y54300D03*
X70700Y54300D03*
X75700Y54300D03*
X80700Y54300D03*
X83200Y59300D03*
X85700Y54300D03*
X88200Y59300D03*
X90700Y54300D03*
X93200Y59300D03*
X95700Y54300D03*
X98200Y59300D03*
X100700Y54300D03*
X103200Y59300D03*
X105700Y54300D03*
X108200Y59300D03*
X113200Y59300D03*
X118200Y59300D03*
X65700Y54300D03*
X78200Y59300D03*
D14*
X-60800Y97500D03*
X-71800Y97500D03*
X-50020Y107437D03*
X-50020Y96437D03*
D38*
X154850Y49550D03*
X154850Y35050D03*
X166350Y35050D03*
X166350Y49550D03*
D39*
X-40300Y-69600D03*
D40*
X-46787Y-75987D02*
X-46787Y-82913D01*
X-48813Y-82913D01*
X-48813Y-75987D01*
X-46787Y-75987D01*
X-46787Y-82272D02*
X-48813Y-82272D01*
X-48813Y-81631D02*
X-46787Y-81631D01*
X-46787Y-80990D02*
X-48813Y-80990D01*
X-48813Y-80349D02*
X-46787Y-80349D01*
X-46787Y-79708D02*
X-48813Y-79708D01*
X-48813Y-79067D02*
X-46787Y-79067D01*
X-46787Y-78426D02*
X-48813Y-78426D01*
X-48813Y-77785D02*
X-46787Y-77785D01*
X-46787Y-77144D02*
X-48813Y-77144D01*
X-48813Y-76503D02*
X-46787Y-76503D01*
X-41787Y-75987D02*
X-41787Y-82913D01*
X-43813Y-82913D01*
X-43813Y-75987D01*
X-41787Y-75987D01*
X-41787Y-82272D02*
X-43813Y-82272D01*
X-43813Y-81631D02*
X-41787Y-81631D01*
X-41787Y-80990D02*
X-43813Y-80990D01*
X-43813Y-80349D02*
X-41787Y-80349D01*
X-41787Y-79708D02*
X-43813Y-79708D01*
X-43813Y-79067D02*
X-41787Y-79067D01*
X-41787Y-78426D02*
X-43813Y-78426D01*
X-43813Y-77785D02*
X-41787Y-77785D01*
X-41787Y-77144D02*
X-43813Y-77144D01*
X-43813Y-76503D02*
X-41787Y-76503D01*
X-36787Y-75987D02*
X-36787Y-82913D01*
X-38813Y-82913D01*
X-38813Y-75987D01*
X-36787Y-75987D01*
X-36787Y-82272D02*
X-38813Y-82272D01*
X-38813Y-81631D02*
X-36787Y-81631D01*
X-36787Y-80990D02*
X-38813Y-80990D01*
X-38813Y-80349D02*
X-36787Y-80349D01*
X-36787Y-79708D02*
X-38813Y-79708D01*
X-38813Y-79067D02*
X-36787Y-79067D01*
X-36787Y-78426D02*
X-38813Y-78426D01*
X-38813Y-77785D02*
X-36787Y-77785D01*
X-36787Y-77144D02*
X-38813Y-77144D01*
X-38813Y-76503D02*
X-36787Y-76503D01*
X-31787Y-75987D02*
X-31787Y-82913D01*
X-33813Y-82913D01*
X-33813Y-75987D01*
X-31787Y-75987D01*
X-31787Y-82272D02*
X-33813Y-82272D01*
X-33813Y-81631D02*
X-31787Y-81631D01*
X-31787Y-80990D02*
X-33813Y-80990D01*
X-33813Y-80349D02*
X-31787Y-80349D01*
X-31787Y-79708D02*
X-33813Y-79708D01*
X-33813Y-79067D02*
X-31787Y-79067D01*
X-31787Y-78426D02*
X-33813Y-78426D01*
X-33813Y-77785D02*
X-31787Y-77785D01*
X-31787Y-77144D02*
X-33813Y-77144D01*
X-33813Y-76503D02*
X-31787Y-76503D01*
X-31787Y-63213D02*
X-31787Y-56287D01*
X-31787Y-63213D02*
X-33813Y-63213D01*
X-33813Y-56287D01*
X-31787Y-56287D01*
X-31787Y-62572D02*
X-33813Y-62572D01*
X-33813Y-61931D02*
X-31787Y-61931D01*
X-31787Y-61290D02*
X-33813Y-61290D01*
X-33813Y-60649D02*
X-31787Y-60649D01*
X-31787Y-60008D02*
X-33813Y-60008D01*
X-33813Y-59367D02*
X-31787Y-59367D01*
X-31787Y-58726D02*
X-33813Y-58726D01*
X-33813Y-58085D02*
X-31787Y-58085D01*
X-31787Y-57444D02*
X-33813Y-57444D01*
X-33813Y-56803D02*
X-31787Y-56803D01*
X-36787Y-56287D02*
X-36787Y-63213D01*
X-38813Y-63213D01*
X-38813Y-56287D01*
X-36787Y-56287D01*
X-36787Y-62572D02*
X-38813Y-62572D01*
X-38813Y-61931D02*
X-36787Y-61931D01*
X-36787Y-61290D02*
X-38813Y-61290D01*
X-38813Y-60649D02*
X-36787Y-60649D01*
X-36787Y-60008D02*
X-38813Y-60008D01*
X-38813Y-59367D02*
X-36787Y-59367D01*
X-36787Y-58726D02*
X-38813Y-58726D01*
X-38813Y-58085D02*
X-36787Y-58085D01*
X-36787Y-57444D02*
X-38813Y-57444D01*
X-38813Y-56803D02*
X-36787Y-56803D01*
X-41787Y-56287D02*
X-41787Y-63213D01*
X-43813Y-63213D01*
X-43813Y-56287D01*
X-41787Y-56287D01*
X-41787Y-62572D02*
X-43813Y-62572D01*
X-43813Y-61931D02*
X-41787Y-61931D01*
X-41787Y-61290D02*
X-43813Y-61290D01*
X-43813Y-60649D02*
X-41787Y-60649D01*
X-41787Y-60008D02*
X-43813Y-60008D01*
X-43813Y-59367D02*
X-41787Y-59367D01*
X-41787Y-58726D02*
X-43813Y-58726D01*
X-43813Y-58085D02*
X-41787Y-58085D01*
X-41787Y-57444D02*
X-43813Y-57444D01*
X-43813Y-56803D02*
X-41787Y-56803D01*
X-46787Y-56287D02*
X-46787Y-63213D01*
X-48813Y-63213D01*
X-48813Y-56287D01*
X-46787Y-56287D01*
X-46787Y-62572D02*
X-48813Y-62572D01*
X-48813Y-61931D02*
X-46787Y-61931D01*
X-46787Y-61290D02*
X-48813Y-61290D01*
X-48813Y-60649D02*
X-46787Y-60649D01*
X-46787Y-60008D02*
X-48813Y-60008D01*
X-48813Y-59367D02*
X-46787Y-59367D01*
X-46787Y-58726D02*
X-48813Y-58726D01*
X-48813Y-58085D02*
X-46787Y-58085D01*
X-46787Y-57444D02*
X-48813Y-57444D01*
X-48813Y-56803D02*
X-46787Y-56803D01*
D41*
X33180Y72980D03*
X8180Y72980D03*
D31*
X142720Y108000D03*
X163280Y108000D03*
D42*
X111000Y111720D03*
X111000Y132280D03*
X73730Y123110D03*
X73730Y102550D03*
D43*
X-94880Y-132285D03*
X-122884Y-132285D03*
D44*
X-108882Y-130761D03*
D43*
X15002Y-132285D03*
X-13002Y-132285D03*
D44*
X1000Y-130761D03*
D43*
X124480Y-132575D03*
X96476Y-132575D03*
D44*
X110478Y-131051D03*
D14*
X-98500Y42000D03*
X-109500Y42000D03*
X-99500Y30000D03*
X-110500Y30000D03*
X-204500Y143000D03*
X-193500Y143000D03*
X-97500Y-11000D03*
X-108500Y-11000D03*
X-98500Y-23000D03*
X-109500Y-23000D03*
X-97500Y-33000D03*
X-108500Y-33000D03*
X-146500Y-167000D03*
X-157500Y-167000D03*
X-99500Y-59000D03*
X-110500Y-59000D03*
X-192500Y119000D03*
X-181500Y119000D03*
X-97500Y-46000D03*
X-108500Y-46000D03*
X-222000Y-108500D03*
X-222000Y-97500D03*
X-121500Y-89000D03*
X-110500Y-89000D03*
M02*
