G04 EAGLE Gerber RS-274X export*
G75*
%MOMM*%
%FSLAX34Y34*%
%LPD*%
%INSoldermask Top*%
%IPPOS*%
%AMOC8*
5,1,8,0,0,1.08239X$1,22.5*%
G01*
G04 Define Apertures*
%ADD10R,1.353200X2.003200*%
%ADD11R,0.633200X0.483200*%
%ADD12R,0.483200X0.633200*%
%ADD13R,0.653200X0.603200*%
%ADD14R,0.803200X0.803200*%
%ADD15R,0.603200X0.653200*%
%ADD16R,0.433200X0.423200*%
%ADD17R,0.423200X0.433200*%
%ADD18R,1.353200X1.003200*%
%ADD19R,0.803200X1.403200*%
%ADD20C,0.403200*%
%ADD21C,0.419200*%
%ADD22R,0.503200X0.553200*%
%ADD23R,0.553200X0.503200*%
%ADD24C,0.453200*%
%ADD25C,0.986200*%
%ADD26C,2.654200*%
%ADD27C,1.270200*%
%ADD28R,0.503200X1.353200*%
%ADD29C,0.903200*%
%ADD30R,0.803200X1.353200*%
%ADD31C,1.373200*%
%ADD32R,0.903200X0.503200*%
%ADD33R,1.203200X0.503200*%
%ADD34R,5.503200X1.103200*%
%ADD35R,1.403200X2.403200*%
%ADD36R,0.703200X1.253200*%
%ADD37R,1.103200X1.003200*%
%ADD38R,0.553200X0.453200*%
%ADD39R,0.453200X0.553200*%
%ADD40R,0.152400X1.828800*%
%ADD41R,1.371600X1.803400*%
%ADD42C,2.203200*%
%ADD43R,5.053200X5.053200*%
%ADD44R,1.053200X1.153200*%
%ADD45C,0.269722*%
%ADD46R,1.503200X1.103200*%
%ADD47R,1.203200X2.003200*%
%ADD48R,2.403200X1.403200*%
%ADD49R,0.914400X1.295400*%
%ADD50R,1.270000X1.270000*%
%ADD51R,1.600200X1.295400*%
%ADD52C,0.655600*%
%ADD53C,0.555600*%
%ADD54C,0.455600*%
%ADD55C,0.705600*%
G36*
X-37729Y132567D02*
X-36500Y132688D01*
X-35271Y132567D01*
X-34089Y132209D01*
X-33000Y131626D01*
X-32045Y130843D01*
X-31262Y129888D01*
X-30679Y128799D01*
X-30321Y127617D01*
X-30200Y126390D01*
X-30200Y115386D01*
X-30321Y114159D01*
X-30679Y112977D01*
X-31262Y111888D01*
X-32045Y110933D01*
X-33000Y110150D01*
X-34089Y109567D01*
X-35271Y109209D01*
X-36500Y109088D01*
X-37729Y109209D01*
X-38911Y109567D01*
X-40000Y110150D01*
X-40955Y110933D01*
X-41738Y111888D01*
X-42321Y112977D01*
X-42679Y114159D01*
X-42800Y115386D01*
X-42800Y126390D01*
X-42679Y127617D01*
X-42321Y128799D01*
X-41738Y129888D01*
X-40955Y130843D01*
X-40000Y131626D01*
X-38911Y132209D01*
X-37729Y132567D01*
G37*
G36*
X48671Y132567D02*
X49900Y132688D01*
X51129Y132567D01*
X52311Y132209D01*
X53400Y131626D01*
X54355Y130843D01*
X55138Y129888D01*
X55721Y128799D01*
X56079Y127617D01*
X56200Y126390D01*
X56200Y115386D01*
X56079Y114159D01*
X55721Y112977D01*
X55138Y111888D01*
X54355Y110933D01*
X53400Y110150D01*
X52311Y109567D01*
X51129Y109209D01*
X49900Y109088D01*
X48671Y109209D01*
X47489Y109567D01*
X46400Y110150D01*
X45445Y110933D01*
X44662Y111888D01*
X44079Y112977D01*
X43721Y114159D01*
X43600Y115386D01*
X43600Y126390D01*
X43721Y127617D01*
X44079Y128799D01*
X44662Y129888D01*
X45445Y130843D01*
X46400Y131626D01*
X47489Y132209D01*
X48671Y132567D01*
G37*
G36*
X-37729Y172567D02*
X-36500Y172688D01*
X-35271Y172567D01*
X-34089Y172209D01*
X-33000Y171626D01*
X-32045Y170843D01*
X-31262Y169888D01*
X-30679Y168799D01*
X-30321Y167617D01*
X-30200Y166390D01*
X-30200Y158386D01*
X-30321Y157159D01*
X-30679Y155977D01*
X-31262Y154888D01*
X-32045Y153933D01*
X-33000Y153150D01*
X-34089Y152567D01*
X-35271Y152209D01*
X-36500Y152088D01*
X-37729Y152209D01*
X-38911Y152567D01*
X-40000Y153150D01*
X-40955Y153933D01*
X-41738Y154888D01*
X-42321Y155977D01*
X-42679Y157159D01*
X-42800Y158386D01*
X-42800Y166390D01*
X-42679Y167617D01*
X-42321Y168799D01*
X-41738Y169888D01*
X-40955Y170843D01*
X-40000Y171626D01*
X-38911Y172209D01*
X-37729Y172567D01*
G37*
G36*
X48671Y172567D02*
X49900Y172688D01*
X51129Y172567D01*
X52311Y172209D01*
X53400Y171626D01*
X54355Y170843D01*
X55138Y169888D01*
X55721Y168799D01*
X56079Y167617D01*
X56200Y166390D01*
X56200Y158386D01*
X56079Y157159D01*
X55721Y155977D01*
X55138Y154888D01*
X54355Y153933D01*
X53400Y153150D01*
X52311Y152567D01*
X51129Y152209D01*
X49900Y152088D01*
X48671Y152209D01*
X47489Y152567D01*
X46400Y153150D01*
X45445Y153933D01*
X44662Y154888D01*
X44079Y155977D01*
X43721Y157159D01*
X43600Y158386D01*
X43600Y166390D01*
X43721Y167617D01*
X44079Y168799D01*
X44662Y169888D01*
X45445Y170843D01*
X46400Y171626D01*
X47489Y172209D01*
X48671Y172567D01*
G37*
G36*
X-132059Y-155462D02*
X-132059Y-148604D01*
X-120375Y-148604D01*
X-120375Y-155462D01*
X-132059Y-155462D01*
G37*
G36*
X-97389Y-155462D02*
X-97389Y-148604D01*
X-85705Y-148604D01*
X-85705Y-155462D01*
X-97389Y-155462D01*
G37*
G36*
X-22177Y-155462D02*
X-22177Y-148604D01*
X-10493Y-148604D01*
X-10493Y-155462D01*
X-22177Y-155462D01*
G37*
G36*
X12493Y-155462D02*
X12493Y-148604D01*
X24177Y-148604D01*
X24177Y-155462D01*
X12493Y-155462D01*
G37*
G36*
X87301Y-155752D02*
X87301Y-148894D01*
X98985Y-148894D01*
X98985Y-155752D01*
X87301Y-155752D01*
G37*
G36*
X121971Y-155752D02*
X121971Y-148894D01*
X133655Y-148894D01*
X133655Y-155752D01*
X121971Y-155752D01*
G37*
D10*
X152800Y142600D03*
X182800Y142600D03*
D11*
X141180Y42050D03*
X141180Y36950D03*
D12*
X129050Y38000D03*
X134150Y38000D03*
X134450Y48500D03*
X129350Y48500D03*
D13*
X111500Y67950D03*
X111500Y74050D03*
X96700Y66950D03*
X96700Y73050D03*
D14*
X59700Y72000D03*
X59700Y83000D03*
X74200Y69570D03*
X74200Y80570D03*
D13*
X87500Y68950D03*
X87500Y75050D03*
X46000Y59950D03*
X46000Y66050D03*
X33500Y41180D03*
X33500Y47280D03*
D15*
X1950Y3000D03*
X8050Y3000D03*
D12*
X158450Y17500D03*
X153350Y17500D03*
D14*
X69200Y-15500D03*
X80200Y-15500D03*
X57200Y-18000D03*
X57200Y-29000D03*
D11*
X175800Y91550D03*
X175800Y86450D03*
D16*
X-87500Y128850D03*
X-87500Y132550D03*
D14*
X-69800Y137150D03*
X-58800Y137150D03*
D16*
X-122500Y-116450D03*
X-122500Y-120150D03*
D17*
X-25750Y-125300D03*
X-22050Y-125300D03*
X-33050Y-90300D03*
X-36750Y-90300D03*
X98550Y-119912D03*
X94850Y-119912D03*
D11*
X142000Y90550D03*
X142000Y85450D03*
D17*
X-8550Y-81300D03*
X-4850Y-81300D03*
X-25150Y-113300D03*
X-21450Y-113300D03*
D16*
X-11100Y30850D03*
X-11100Y34550D03*
X-4500Y43850D03*
X-4500Y47550D03*
D14*
X-43800Y36000D03*
X-43800Y47000D03*
D11*
X166200Y91550D03*
X166200Y86450D03*
D16*
X-21700Y102550D03*
X-21700Y98850D03*
X-37100Y102550D03*
X-37100Y98850D03*
D15*
X49050Y50000D03*
X42950Y50000D03*
D14*
X43200Y-12000D03*
X43200Y-23000D03*
D12*
X93850Y-14500D03*
X98950Y-14500D03*
X123450Y-15500D03*
X118350Y-15500D03*
X128850Y24500D03*
X133950Y24500D03*
D18*
X-165300Y-136012D03*
X-200300Y-136012D03*
X-195728Y-153727D03*
X-160728Y-153727D03*
X-173584Y94893D03*
X-138584Y94893D03*
D19*
X-28700Y61100D03*
X-19200Y61100D03*
X-9700Y61100D03*
X-9700Y86100D03*
X-19200Y86100D03*
X-28700Y86100D03*
D20*
X8300Y25600D03*
X4300Y25600D03*
X8300Y29600D03*
X4300Y29600D03*
X8300Y33600D03*
X4300Y33600D03*
X8300Y37600D03*
X4300Y37600D03*
D21*
X-69400Y124800D03*
X-65400Y124800D03*
X-61400Y124800D03*
X-69400Y120800D03*
X-65400Y120800D03*
X-61400Y120800D03*
X-69400Y116800D03*
X-65400Y116800D03*
X-61400Y116800D03*
X-69400Y112800D03*
X-65400Y112800D03*
X-61400Y112800D03*
X-69400Y108800D03*
X-65400Y108800D03*
X-61400Y108800D03*
D22*
X5800Y-23750D03*
X10800Y-23750D03*
X15800Y-23750D03*
X20800Y-23750D03*
D23*
X21050Y-18500D03*
X21050Y-13500D03*
D22*
X20800Y-8250D03*
X15800Y-8250D03*
X10800Y-8250D03*
X5800Y-8250D03*
D23*
X5550Y-13500D03*
X5550Y-18500D03*
D24*
X-4700Y-99200D03*
X300Y-99200D03*
X5300Y-99200D03*
X-4700Y-104200D03*
X300Y-104200D03*
X5300Y-104200D03*
X-4700Y-109200D03*
X300Y-109200D03*
X5300Y-109200D03*
D25*
X189470Y-69250D03*
X189470Y-56550D03*
X202170Y-69250D03*
X202170Y-56550D03*
X214880Y-69250D03*
X214880Y-56550D03*
D26*
X176770Y-88300D03*
D27*
X176770Y-62900D03*
D26*
X176770Y-37500D03*
X208520Y-88300D03*
X208520Y-37500D03*
D27*
X227570Y-73060D03*
X227570Y-52740D03*
D28*
X9200Y115138D03*
X14200Y115138D03*
X19200Y115138D03*
X24200Y115138D03*
X4200Y115138D03*
X-800Y115138D03*
X-5800Y115138D03*
X-10800Y115138D03*
D29*
X35600Y125888D03*
X-22200Y125888D03*
D30*
X38700Y115138D03*
X30700Y115138D03*
X-17300Y115138D03*
X-25300Y115138D03*
D31*
X49900Y162388D03*
X-36500Y162388D03*
X49900Y120888D03*
X-36500Y120888D03*
D32*
X-123738Y57500D03*
X-123738Y52500D03*
X-123738Y47500D03*
X-123738Y42500D03*
X-123738Y37500D03*
X-123738Y32500D03*
X-123738Y27500D03*
X-123738Y22500D03*
X-123738Y17500D03*
X-123738Y12500D03*
X-123738Y7500D03*
X-123738Y2500D03*
X-123738Y-2500D03*
X-123738Y-7500D03*
X-123738Y-12500D03*
X-123738Y-17500D03*
X-123738Y-22500D03*
X-123738Y-27500D03*
X-123738Y-32500D03*
X-123738Y-37500D03*
X-123738Y-42500D03*
X-123738Y-47500D03*
X-123738Y-52500D03*
X-123738Y-57500D03*
D33*
X-150238Y65400D03*
X-150238Y-65400D03*
D34*
X-187650Y-77262D03*
X-187650Y-122982D03*
D35*
X-66880Y76230D03*
X-46320Y76230D03*
D36*
X-102400Y109430D03*
X-115400Y109430D03*
X-108900Y88430D03*
D37*
X-154014Y135440D03*
X-154014Y154440D03*
X-175014Y144940D03*
D38*
X9700Y11480D03*
X9700Y16980D03*
D39*
X2050Y15210D03*
X-3450Y15210D03*
X-118150Y121700D03*
X-123650Y121700D03*
X11950Y103700D03*
X17450Y103700D03*
X-86450Y110700D03*
X-80950Y110700D03*
X-106350Y122700D03*
X-111850Y122700D03*
X-12250Y103700D03*
X-6750Y103700D03*
X350Y-31300D03*
X5850Y-31300D03*
X-87050Y115700D03*
X-81550Y115700D03*
X-136450Y-136300D03*
X-130950Y-136300D03*
D38*
X89900Y-121520D03*
X89900Y-127020D03*
X-32500Y-121550D03*
X-32500Y-127050D03*
D39*
X4350Y46700D03*
X9850Y46700D03*
D38*
X-143100Y142950D03*
X-143100Y148450D03*
D39*
X-114750Y153700D03*
X-120250Y153700D03*
D40*
X-116800Y138800D03*
D41*
X-109180Y138800D03*
X-124420Y138800D03*
D42*
X-60200Y-109200D03*
X88000Y148800D03*
X28000Y94800D03*
X199000Y67800D03*
X-211100Y90800D03*
X43850Y-115320D03*
X41600Y-86200D03*
X81702Y-58754D03*
X-34800Y-30200D03*
X7238Y-57238D03*
X197850Y22632D03*
X180500Y-1700D03*
X108932Y-31200D03*
X-61400Y159300D03*
D43*
X90700Y26800D03*
D20*
X63200Y26800D03*
X63200Y31800D03*
X63200Y36800D03*
X63200Y41800D03*
X63200Y46800D03*
X58200Y49300D03*
X58200Y39300D03*
X58200Y34300D03*
X58200Y29300D03*
X58200Y24300D03*
X63200Y21800D03*
X63200Y16800D03*
X58200Y19300D03*
X58200Y14300D03*
X58200Y9300D03*
X63200Y6800D03*
X63200Y1800D03*
X63200Y-5700D03*
X68200Y-5700D03*
X70700Y-700D03*
X73200Y-5700D03*
X78200Y-5700D03*
X83200Y-5700D03*
X88200Y-5700D03*
X93200Y-5700D03*
X98200Y-5700D03*
X103200Y-5700D03*
X108200Y-5700D03*
X113200Y-5700D03*
X118200Y-5700D03*
X110700Y-700D03*
X105700Y-700D03*
X100700Y-700D03*
X95700Y-700D03*
X90700Y-700D03*
X85700Y-700D03*
X80700Y-700D03*
X118200Y6800D03*
X123200Y4300D03*
X123200Y-700D03*
X123200Y9300D03*
X118200Y11800D03*
X123200Y14300D03*
X118200Y16800D03*
X118200Y21800D03*
X123200Y19300D03*
X123200Y24300D03*
X123200Y29300D03*
X123200Y34300D03*
X118200Y36800D03*
X118200Y41800D03*
X123200Y44300D03*
X118200Y46800D03*
X123200Y54300D03*
X58200Y54300D03*
X70700Y54300D03*
X75700Y54300D03*
X80700Y54300D03*
X83200Y59300D03*
X85700Y54300D03*
X88200Y59300D03*
X90700Y54300D03*
X93200Y59300D03*
X95700Y54300D03*
X98200Y59300D03*
X100700Y54300D03*
X103200Y59300D03*
X105700Y54300D03*
X108200Y59300D03*
X113200Y59300D03*
X118200Y59300D03*
X65700Y54300D03*
X78200Y59300D03*
D14*
X-60800Y97500D03*
X-71800Y97500D03*
X-50020Y107437D03*
X-50020Y96437D03*
D44*
X154850Y49550D03*
X154850Y35050D03*
X166350Y35050D03*
X166350Y49550D03*
D45*
X-46782Y-75982D02*
X-46782Y-82918D01*
X-48818Y-82918D01*
X-48818Y-75982D01*
X-46782Y-75982D01*
X-46782Y-80356D02*
X-48818Y-80356D01*
X-48818Y-77794D02*
X-46782Y-77794D01*
X-41782Y-75982D02*
X-41782Y-82918D01*
X-43818Y-82918D01*
X-43818Y-75982D01*
X-41782Y-75982D01*
X-41782Y-80356D02*
X-43818Y-80356D01*
X-43818Y-77794D02*
X-41782Y-77794D01*
X-36782Y-75982D02*
X-36782Y-82918D01*
X-38818Y-82918D01*
X-38818Y-75982D01*
X-36782Y-75982D01*
X-36782Y-80356D02*
X-38818Y-80356D01*
X-38818Y-77794D02*
X-36782Y-77794D01*
X-31782Y-75982D02*
X-31782Y-82918D01*
X-33818Y-82918D01*
X-33818Y-75982D01*
X-31782Y-75982D01*
X-31782Y-80356D02*
X-33818Y-80356D01*
X-33818Y-77794D02*
X-31782Y-77794D01*
X-31782Y-63218D02*
X-31782Y-56282D01*
X-31782Y-63218D02*
X-33818Y-63218D01*
X-33818Y-56282D01*
X-31782Y-56282D01*
X-31782Y-60656D02*
X-33818Y-60656D01*
X-33818Y-58094D02*
X-31782Y-58094D01*
X-36782Y-56282D02*
X-36782Y-63218D01*
X-38818Y-63218D01*
X-38818Y-56282D01*
X-36782Y-56282D01*
X-36782Y-60656D02*
X-38818Y-60656D01*
X-38818Y-58094D02*
X-36782Y-58094D01*
X-41782Y-56282D02*
X-41782Y-63218D01*
X-43818Y-63218D01*
X-43818Y-56282D01*
X-41782Y-56282D01*
X-41782Y-60656D02*
X-43818Y-60656D01*
X-43818Y-58094D02*
X-41782Y-58094D01*
X-46782Y-56282D02*
X-46782Y-63218D01*
X-48818Y-63218D01*
X-48818Y-56282D01*
X-46782Y-56282D01*
X-46782Y-60656D02*
X-48818Y-60656D01*
X-48818Y-58094D02*
X-46782Y-58094D01*
D46*
X-40300Y-69600D03*
D47*
X33180Y72980D03*
X8180Y72980D03*
D35*
X142720Y108000D03*
X163280Y108000D03*
D48*
X111000Y111720D03*
X111000Y132280D03*
X73730Y123110D03*
X73730Y102550D03*
D49*
X-94880Y-132285D03*
X-122884Y-132285D03*
D50*
X-90404Y-145810D03*
X-127360Y-145810D03*
D51*
X-108882Y-130761D03*
D49*
X15002Y-132285D03*
X-13002Y-132285D03*
D50*
X19478Y-145810D03*
X-17478Y-145810D03*
D51*
X1000Y-130761D03*
D49*
X124480Y-132575D03*
X96476Y-132575D03*
D50*
X128956Y-146100D03*
X92000Y-146100D03*
D51*
X110478Y-131051D03*
D14*
X-98500Y42000D03*
X-109500Y42000D03*
X-99500Y30000D03*
X-110500Y30000D03*
X-204500Y143000D03*
X-193500Y143000D03*
X-97500Y-11000D03*
X-108500Y-11000D03*
X-98500Y-23000D03*
X-109500Y-23000D03*
X-97500Y-33000D03*
X-108500Y-33000D03*
X-146500Y-167000D03*
X-157500Y-167000D03*
X-99500Y-59000D03*
X-110500Y-59000D03*
X-192500Y119000D03*
X-181500Y119000D03*
X-97500Y-46000D03*
X-108500Y-46000D03*
X-222000Y-108500D03*
X-222000Y-97500D03*
X-121500Y-89000D03*
X-110500Y-89000D03*
D52*
X53340Y41275D03*
X109220Y-16510D03*
X635Y-25400D03*
X11430Y-18415D03*
X635Y-118110D03*
X-22225Y-130175D03*
X-6350Y97790D03*
X51435Y90805D03*
D53*
X-70000Y130000D03*
X-81000Y121000D03*
D52*
X128905Y31750D03*
X128905Y78740D03*
X122555Y39370D03*
X134620Y90805D03*
X194310Y-48895D03*
X168275Y4445D03*
X54610Y57785D03*
X59690Y65405D03*
X-52705Y114300D03*
X-59690Y104140D03*
X102870Y67310D03*
X117475Y0D03*
X22225Y59690D03*
D54*
X104140Y-13335D03*
D52*
X99060Y-21590D03*
X208280Y-61595D03*
X95250Y-54610D03*
D53*
X90700Y-700D03*
D54*
X18415Y22860D03*
D52*
X50800Y-9525D03*
D53*
X-3000Y29000D03*
X-4000Y53000D03*
D54*
X52000Y15000D03*
X18000Y27000D03*
D53*
X63200Y21800D03*
D55*
X46000Y4000D03*
X31000Y-11000D03*
D53*
X16050Y-13500D03*
D54*
X14335Y29940D03*
D52*
X15240Y17780D03*
X0Y-15240D03*
X-19685Y-15240D03*
D54*
X63200Y26800D03*
D52*
X10795Y-32385D03*
X10795Y-43815D03*
D54*
X13335Y34290D03*
D52*
X-1635Y20955D03*
X27305Y34845D03*
X45720Y71755D03*
X17145Y71755D03*
X-57150Y127635D03*
X-52070Y136525D03*
X-50800Y36195D03*
D54*
X4300Y29600D03*
D55*
X-38000Y26000D03*
D52*
X-52705Y120650D03*
X-40640Y90805D03*
X-120015Y88900D03*
X-128905Y97790D03*
X-154940Y-76835D03*
X-135255Y29210D03*
X-135255Y-3810D03*
X-187325Y-101600D03*
X-130810Y-50800D03*
X-165735Y86995D03*
X-133350Y109855D03*
X-114935Y-111125D03*
D53*
X300Y-104200D03*
D54*
X-47800Y-59750D03*
D52*
X-135890Y-130810D03*
X-117475Y-121285D03*
X-28575Y72390D03*
X5080Y124460D03*
M02*
